<?xml version="1.0" encoding="UTF-8"?>
<svg version="1.1" xmlns="http://www.w3.org/2000/svg" width="415" height="413">
<path d="M0 0 C136.95 0 273.9 0 415 0 C415 136.29 415 272.58 415 413 C278.05 413 141.1 413 0 413 C0 276.71 0 140.42 0 0 Z " fill="#FCFCFC" transform="translate(0,0)"/>
<path d="M0 0 C0.8590242 -0.00979385 1.7180484 -0.01958771 2.60310364 -0.02967834 C38.37690486 -0.3537343 38.37690486 -0.3537343 55.83984375 4.23828125 C56.6798291 4.45258789 57.51981445 4.66689453 58.38525391 4.88769531 C108.24631799 17.91471605 152.52882186 49.00531065 179.37890625 93.34765625 C181.65970032 97.2465683 183.7829234 101.21740317 185.83984375 105.23828125 C186.36336426 106.25656006 186.36336426 106.25656006 186.89746094 107.29541016 C200.43194328 133.95896409 207.28596591 163.20569744 207.21484375 193.05078125 C207.21402802 194.34011063 207.21402802 194.34011063 207.2131958 195.65548706 C207.14787344 218.16844752 202.88507307 237.07244041 196.83984375 259.23828125 C171.42984375 259.23828125 146.01984375 259.23828125 119.83984375 259.23828125 C117.52984375 250.98828125 115.21984375 242.73828125 112.83984375 234.23828125 C112.17984375 232.58828125 111.51984375 230.93828125 110.83984375 229.23828125 C110.83984375 227.91828125 110.83984375 226.59828125 110.83984375 225.23828125 C110.17984375 225.23828125 109.51984375 225.23828125 108.83984375 225.23828125 C108.56377662 230.12541557 109.49035209 233.71682195 111.15234375 238.30078125 C113.68716677 245.31150799 115.11927878 251.78249972 116.83984375 259.23828125 C84.82984375 259.23828125 52.81984375 259.23828125 19.83984375 259.23828125 C22.08984375 246.86328125 22.08984375 246.86328125 23.83984375 242.23828125 C18.12741539 245.89303327 18.12741539 245.89303327 15.83984375 259.23828125 C-16.83015625 259.23828125 -49.50015625 259.23828125 -83.16015625 259.23828125 C-83.16015625 258.57828125 -83.16015625 257.91828125 -83.16015625 257.23828125 C-84.15015625 257.23828125 -85.14015625 257.23828125 -86.16015625 257.23828125 C-86.16015625 257.89828125 -86.16015625 258.55828125 -86.16015625 259.23828125 C-89.46015625 259.23828125 -92.76015625 259.23828125 -96.16015625 259.23828125 C-95.74443359 257.33755859 -95.74443359 257.33755859 -95.3203125 255.3984375 C-94.95419334 253.6992691 -94.58832113 252.00004747 -94.22265625 250.30078125 C-94.04025391 249.46998047 -93.85785156 248.63917969 -93.66992188 247.78320312 C-92.49106983 242.27474902 -91.69776829 236.8464237 -91.16015625 231.23828125 C-93.65969492 233.73781992 -93.85199462 235.43625603 -94.6328125 238.8671875 C-94.89255859 239.98416016 -95.15230469 241.10113281 -95.41992188 242.25195312 C-95.68482422 243.42306641 -95.94972656 244.59417969 -96.22265625 245.80078125 C-96.75208797 248.11529931 -97.28447735 250.42914351 -97.8203125 252.7421875 C-98.17041382 254.28628296 -98.17041382 254.28628296 -98.52758789 255.86157227 C-99.16015625 258.23828125 -99.16015625 258.23828125 -100.16015625 259.23828125 C-102.43007512 259.33268103 -104.70297592 259.35570351 -106.97485352 259.35180664 C-108.04308853 259.35202568 -108.04308853 259.35202568 -109.13290405 259.35224915 C-111.49748737 259.35154995 -113.86199286 259.34375731 -116.2265625 259.3359375 C-117.86181088 259.33407334 -119.49705982 259.33264943 -121.13230896 259.33164978 C-125.4445041 259.32782443 -129.75666577 259.317994 -134.06884766 259.3069458 C-138.46581571 259.29673205 -142.86278914 259.29215224 -147.25976562 259.28710938 C-155.89324456 259.27637174 -164.52669625 259.25929512 -173.16015625 259.23828125 C-174.11560828 255.80083047 -175.06419865 252.36151986 -176.01171875 248.921875 C-176.27799072 247.96422241 -176.5442627 247.00656982 -176.81860352 246.01989746 C-181.64539794 228.45347029 -183.53221945 211.59706008 -183.59765625 193.42578125 C-183.60392029 192.61464874 -183.61018433 191.80351624 -183.61663818 190.96780396 C-183.69800763 174.31426059 -181.50086 158.35863355 -176.78515625 142.36328125 C-176.47553955 141.2944873 -176.16592285 140.22569336 -175.84692383 139.12451172 C-171.55365637 124.52539669 -165.51790641 111.53654481 -158.16015625 98.23828125 C-157.78874512 97.55942871 -157.41733398 96.88057617 -157.03466797 96.18115234 C-149.05732097 81.72837755 -138.43858346 69.2352183 -127.16015625 57.23828125 C-126.55429688 56.57957031 -125.9484375 55.92085937 -125.32421875 55.2421875 C-119.21344656 48.83490105 -112.20896839 43.55781993 -105.16015625 38.23828125 C-104.59522461 37.80725098 -104.03029297 37.3762207 -103.44824219 36.93212891 C-74.5127444 14.97260589 -36.59244231 0.34472121 0 0 Z " fill="#020202" transform="translate(197.16015625,9.76171875)"/>
<path d="M0 0 C4.77738254 2.80262982 8.53454004 6.57129252 12.45703125 10.44140625 C13.91496094 11.77365234 13.91496094 11.77365234 15.40234375 13.1328125 C33.85155245 30.24645248 42.38964472 54.20227472 50.45703125 77.44140625 C51.60676964 74.85974825 52.75193484 72.27622318 53.89453125 69.69140625 C54.22001953 68.96179688 54.54550781 68.2321875 54.88085938 67.48046875 C55.19345703 66.77148438 55.50605469 66.0625 55.828125 65.33203125 C56.26016235 64.3579834 56.26016235 64.3579834 56.70092773 63.36425781 C57.46911282 61.41068154 57.99345918 59.4866942 58.45703125 57.44140625 C57.46703125 57.11140625 56.47703125 56.78140625 55.45703125 56.44140625 C55.45703125 52.48140625 55.45703125 48.52140625 55.45703125 44.44140625 C56.77703125 44.44140625 58.09703125 44.44140625 59.45703125 44.44140625 C59.78703125 47.74140625 60.11703125 51.04140625 60.45703125 54.44140625 C60.93011719 53.61898437 61.40320313 52.7965625 61.890625 51.94921875 C68.72021218 40.42013006 76.18948721 30.57517827 88.45703125 24.44140625 C96.35299136 23.42311118 102.41980414 25.49164772 108.77734375 30.13671875 C121.55420554 40.83463353 130.46642899 58.67873899 135.45703125 74.44140625 C135.12703125 75.10140625 134.79703125 75.76140625 134.45703125 76.44140625 C134.08117307 81.31337922 135.11455526 84.93929695 136.76953125 89.50390625 C139.30435427 96.51463299 140.73646628 102.98562472 142.45703125 110.44140625 C110.44703125 110.44140625 78.43703125 110.44140625 45.45703125 110.44140625 C47.70703125 98.06640625 47.70703125 98.06640625 49.45703125 93.44140625 C43.74460289 97.09615827 43.74460289 97.09615827 41.45703125 110.44140625 C8.78703125 110.44140625 -23.88296875 110.44140625 -57.54296875 110.44140625 C-57.54296875 109.78140625 -57.54296875 109.12140625 -57.54296875 108.44140625 C-58.53296875 108.44140625 -59.52296875 108.44140625 -60.54296875 108.44140625 C-60.54296875 109.10140625 -60.54296875 109.76140625 -60.54296875 110.44140625 C-63.84296875 110.44140625 -67.14296875 110.44140625 -70.54296875 110.44140625 C-70.26582031 109.17425781 -69.98867187 107.90710938 -69.703125 106.6015625 C-69.33700584 104.9023941 -68.97113363 103.20317247 -68.60546875 101.50390625 C-68.42306641 100.67310547 -68.24066406 99.84230469 -68.05273438 98.98632812 C-66.87388233 93.47787402 -66.08058079 88.0495487 -65.54296875 82.44140625 C-66.53296875 82.93640625 -66.53296875 82.93640625 -67.54296875 83.44140625 C-61.30559849 53.22914403 -47.8779023 16.6744035 -21.66796875 -1.55859375 C-14.29614607 -3.91757701 -7.00809985 -3.1674404 0 0 Z " fill="#E8E8E8" transform="translate(171.54296875,158.55859375)"/>
<path d="M0 0 C87.78 0 175.56 0 266 0 C244.12724732 25.51821146 209.27690588 40.25889795 177.42236328 48.37695312 C175.36664556 48.90569649 173.32070998 49.47224525 171.27734375 50.046875 C159.1163885 53.01098351 146.81424889 53.37107868 134.375 53.3125 C133.58829926 53.31100952 132.80159851 53.30951904 131.99105835 53.3079834 C119.45476276 53.2654094 107.30356338 52.56884631 95 50 C94.23719727 49.8448291 93.47439453 49.6896582 92.68847656 49.52978516 C58.81674845 42.49290136 24.30610075 26.05562808 0 1 C0 0.67 0 0.34 0 0 Z " fill="#020202" transform="translate(76,347)"/>
<path d="M0 0 C15.09778602 5.86243819 23.17378583 20.67164326 29.890625 34.48046875 C30.19830811 35.09937988 30.50599121 35.71829102 30.82299805 36.35595703 C32.60071088 40.19951834 33.17942763 42.41909604 31.765625 46.41796875 C22.80237822 68.65017656 22.80237822 68.65017656 14.765625 75.41796875 C12.14082783 76.45591136 10.63334671 76.53745715 7.765625 76.41796875 C4.00563197 70.75131258 1.10636449 65.06820842 -1.296875 58.73046875 C-4.48568129 49.70603791 -4.48568129 49.70603791 -11.234375 43.41796875 C-14.1493005 42.83414915 -14.1493005 42.83414915 -17.234375 43.41796875 C-21.07301066 48.26284871 -22.93425706 53.51056297 -24.85742188 59.29101562 C-26.62404835 64.11915282 -26.62404835 64.11915282 -29.67578125 65.61328125 C-32.234375 65.41796875 -32.234375 65.41796875 -34.296875 63.828125 C-36.31468224 61.38316099 -38.31055459 58.93790253 -40.234375 56.41796875 C-40.78222656 55.71285156 -41.33007812 55.00773437 -41.89453125 54.28125 C-44.26771839 50.91648049 -45.28118346 49.41894956 -45.08203125 45.16015625 C-44.12125797 40.91858572 -42.61454688 37.49954602 -40.609375 33.66796875 C-40.25037109 32.96986084 -39.89136719 32.27175293 -39.52148438 31.55249023 C-31.82796748 16.80488674 -19.84173335 -5.16856341 0 0 Z " fill="#030303" transform="translate(176.234375,170.58203125)"/>
<path d="M0 0 C2.72191784 0.34536162 3.75911082 0.70612752 5.52734375 2.86328125 C8.18524156 7.47963009 10.51017979 12.05424108 12.5 17 C15.90815856 25.47729376 15.90815856 25.47729376 21 33 C24.42287877 34.65628591 24.42287877 34.65628591 28 34 C39.46873456 28.98242863 44.23452729 13.66970772 49 3 C49.66 3 50.32 3 51 3 C52.37695767 6.70026567 53.7224137 10.41123829 55.0625 14.125 C55.45244141 15.17171875 55.84238281 16.2184375 56.24414062 17.296875 C56.60830078 18.31523437 56.97246094 19.33359375 57.34765625 20.3828125 C57.68804932 21.31496582 58.02844238 22.24711914 58.37915039 23.20751953 C60.33138803 31.98836662 53.68669808 47.09655673 52 53 C19.33 53 -13.34 53 -47 53 C-42.3571887 33.26805199 -42.3571887 33.26805199 -40 26.0625 C-39.74653809 25.27254639 -39.49307617 24.48259277 -39.23193359 23.66870117 C-37.39382003 18.01408644 -35.38225746 12.45116559 -33 7 C-32.34 7 -31.68 7 -31 7 C-29.8775463 8.49857935 -28.82685628 10.051239 -27.8125 11.625 C-24.19849101 16.91452668 -20.63206699 21.789311 -14.375 23.875 C-10.27359028 22.36395431 -8.85848444 18.78399619 -7 15 C-5.9136308 12.44451942 -4.8982243 9.87377062 -3.9140625 7.27734375 C-2.86651438 4.66742685 -1.55907671 2.33861506 0 0 Z " fill="#060606" transform="translate(161,216)"/>
<path d="M0 0 C10.48402822 7.06532336 16.59021219 16.12573959 22.375 27.1875 C22.73787109 27.86095459 23.10074219 28.53440918 23.47460938 29.22827148 C25.68054577 33.61034897 26.36101306 36.24803256 24.875 40.9375 C23.75090336 43.63303787 22.47032732 46.22120393 21.125 48.8125 C20.76446533 49.51777832 20.40393066 50.22305664 20.0324707 50.94970703 C13.29945454 63.98786364 13.29945454 63.98786364 8.875 66.9375 C6.1875 67.0625 6.1875 67.0625 3.875 66.9375 C3.35550781 65.89851563 2.83601563 64.85953125 2.30078125 63.7890625 C1.96498047 63.11762207 1.62917969 62.44618164 1.28320312 61.75439453 C0.55091171 60.28948538 -0.18085663 58.82431463 -0.91210938 57.35888672 C-2.51944879 54.13921173 -4.1322354 50.92333856 -5.76953125 47.71875 C-6.21683594 46.8421875 -6.66414063 45.965625 -7.125 45.0625 C-7.516875 44.30195313 -7.90875 43.54140625 -8.3125 42.7578125 C-9.125 40.9375 -9.125 40.9375 -9.125 38.9375 C-12.59825181 37.7797494 -15.48567448 37.86883348 -19.125 37.9375 C-19.45709473 38.74755493 -19.45709473 38.74755493 -19.79589844 39.57397461 C-20.80669138 42.0144453 -21.84043905 44.44451549 -22.875 46.875 C-23.22304687 47.72513672 -23.57109375 48.57527344 -23.9296875 49.45117188 C-24.27773437 50.26005859 -24.62578125 51.06894531 -24.984375 51.90234375 C-25.29858398 52.6512085 -25.61279297 53.40007324 -25.93652344 54.17163086 C-27.125 55.9375 -27.125 55.9375 -29.11425781 56.80297852 C-31.125 56.9375 -31.125 56.9375 -33.4375 55.125 C-34.36206267 54.08740302 -35.25308498 53.01971431 -36.125 51.9375 C-37.07052734 50.77347656 -37.07052734 50.77347656 -38.03515625 49.5859375 C-43.15146259 42.85234944 -43.15146259 42.85234944 -43.04296875 39.1015625 C-41.92364075 35.24345323 -40.38700364 31.82039081 -38.5625 28.25 C-38.20679932 27.54883057 -37.85109863 26.84766113 -37.48461914 26.12524414 C-30.02663258 11.78851618 -18.53996019 -6.30358647 0 0 Z " fill="#030303" transform="translate(273.125,188.0625)"/>
<path d="M0 0 C2.00219727 0.17211914 2.00219727 0.17211914 4 1 C5.50033368 3.47868248 6.73615023 5.81977861 7.9375 8.4375 C8.63535928 9.89846491 9.33327591 11.35940243 10.03125 12.8203125 C10.36640625 13.53477539 10.7015625 14.24923828 11.046875 14.98535156 C12.29348827 17.62035482 13.61240602 20.21624027 14.9375 22.8125 C16.16550967 25.23105463 17.13853369 27.41560108 18 30 C23.10000579 30.30000034 25.85565021 29.99859748 30 27 C35.94797786 19.59778086 39.90565595 10.52469809 44 2 C46.84856287 4.84856287 47.60333526 8.30932758 48.8125 12.0625 C49.07240723 12.8565625 49.33231445 13.650625 49.60009766 14.46875 C51.4345517 20.12284328 53.18467677 25.80124882 54.875 31.5 C55.09003174 32.22324463 55.30506348 32.94648926 55.52661133 33.69165039 C57 38.74892453 57 38.74892453 57 41 C24.99 41 -7.02 41 -40 41 C-37.75 28.625 -37.75 28.625 -36.0546875 23.67578125 C-35.70019531 22.62841797 -35.34570312 21.58105469 -34.98046875 20.50195312 C-34.43326172 18.92317383 -34.43326172 18.92317383 -33.875 17.3125 C-33.50246094 16.21744141 -33.12992188 15.12238281 -32.74609375 13.99414062 C-31.83762798 11.32697829 -30.92219319 8.6624403 -30 6 C-26.09437685 7.30187438 -25.308049 9.07596651 -23 12.4375 C-20.03486238 16.74657801 -20.03486238 16.74657801 -16 20 C-13.66800612 20.07905064 -11.33167378 20.08798769 -9 20 C-8.7215625 19.13890625 -8.443125 18.2778125 -8.15625 17.390625 C-7.0418958 14.12285661 -5.81518203 10.94172224 -4.5 7.75 C-4.0771875 6.71359375 -3.654375 5.6771875 -3.21875 4.609375 C-2 2 -2 2 0 0 Z " fill="#0B0B0B" transform="translate(257,228)"/>
<path d="M0 0 C4.36241363 3.10611764 7.5926416 6.89369629 11 11 C11.804375 11.598125 12.60875 12.19625 13.4375 12.8125 C20.4540606 18.80224685 24.43383369 27.17058396 25.31640625 36.2578125 C25.70824919 47.76029867 23.31745127 57.25610592 15.78125 66.1015625 C7.94388636 74.45454217 -2.27240673 78.93184968 -13.75 79.375 C-27.28770294 79.13749644 -36.3659783 71.99295791 -45.5625 62.8125 C-46.6752832 61.73645508 -46.6752832 61.73645508 -47.81054688 60.63867188 C-55.48295745 53.0072537 -61.12991822 44.42103112 -61.38037109 33.29101562 C-61.3467177 20.5027262 -57.70074461 12.14571594 -49 2.8671875 C-35.25900978 -10.43212803 -15.510486 -10.14485474 0 0 Z M-40.8203125 19.2421875 C-47.32633568 28.5769164 -48.00683148 37.93565081 -47 49 C-45.23078832 58.05978868 -39.02345207 65.45020243 -31.58984375 70.703125 C-23.4803636 75.41447574 -15.26517964 75.85824822 -6 75 C3.63271975 72.38314873 11.4150424 67.31681697 16.93359375 58.95703125 C21.66912453 50.26655168 22.69529308 39.69914199 20.2734375 30.12890625 C19.3380068 27.63062183 18.27254967 25.34283979 17 23 C16.50886719 22.04867187 16.50886719 22.04867187 16.0078125 21.078125 C11.29196827 13.29870313 2.05657808 8.60674683 -6.5390625 6.4375 C-19.79047633 4.0816931 -32.28189022 8.7249034 -40.8203125 19.2421875 Z " fill="#E6E6E6" transform="translate(247,112)"/>
<path d="M0 0 C0.33 0 0.66 0 1 0 C1.01417969 0.72703125 1.02835938 1.4540625 1.04296875 2.203125 C1.68741146 15.78867411 6.51459463 24.51459463 16 34 C16.87140625 34.95390625 17.7428125 35.9078125 18.640625 36.890625 C25.80942776 44.64169171 33.80685712 50.23697448 44.55859375 51.23828125 C53.97369554 51.48100436 62.65872792 49.45135193 71 45 C71 45.66 71 46.32 71 47 C69.53125 48.19140625 69.53125 48.19140625 67.5 49.5625 C57.92835878 56.58956758 52.49362099 65.72868203 47 76 C46.67 76 46.34 76 46 76 C46 72.04 46 68.08 46 64 C44.68 64 43.36 64 42 64 C42.11347619 65.97986082 42.2410935 67.95891598 42.375 69.9375 C42.44460937 71.03964844 42.51421875 72.14179688 42.5859375 73.27734375 C42.79089844 74.62505859 42.79089844 74.62505859 43 76 C43.66 76.33 44.32 76.66 45 77 C44.41432875 81.40240525 43.30527385 85.10723718 41.5625 89.1875 C41.13066406 90.21230469 40.69882813 91.23710937 40.25390625 92.29296875 C39 95 39 95 37 98 C34.65404742 92.45091986 32.33704504 86.89799228 30.16796875 81.27734375 C22.83614297 62.35822118 14.39302933 46.27232691 0.0625 31.625 C-0.59363281 30.94638916 -1.24976563 30.26777832 -1.92578125 29.56860352 C-6.51515237 25.00134028 -11.2013149 21.8519465 -17 19 C-17.74757568 18.62568848 -18.49515137 18.25137695 -19.26538086 17.86572266 C-19.83780518 17.58003418 -20.41022949 17.2943457 -21 17 C-20.34 17 -19.68 17 -19 17 C-19.66 15.02 -20.32 13.04 -21 11 C-20 10 -20 10 -17.27734375 9.90234375 C-15.62412109 9.91974609 -15.62412109 9.91974609 -13.9375 9.9375 C-12.28041016 9.95103516 -12.28041016 9.95103516 -10.58984375 9.96484375 C-9.73519531 9.97644531 -8.88054687 9.98804688 -8 10 C-7.67 10.99 -7.34 11.98 -7 13 C-3.75016865 11.91215032 -3.75016865 11.91215032 -1 10 C-0.76712992 8.31816052 -0.58735834 6.6287584 -0.4375 4.9375 C-0.35371094 4.01839844 -0.26992187 3.09929687 -0.18359375 2.15234375 C-0.09271484 1.08693359 -0.09271484 1.08693359 0 0 Z " fill="#060606" transform="translate(185,139)"/>
<path d="M0 0 C4.19357451 2.26214903 4.19357451 2.26214903 5.375 4.625 C4.55257812 4.62757813 3.73015625 4.63015625 2.8828125 4.6328125 C-5.51030109 4.92356701 -10.98101542 6.47059203 -17.625 11.625 C-18.22570312 12.08390625 -18.82640625 12.5428125 -19.4453125 13.015625 C-43.16963824 33.98130821 -53.39982662 77.22163251 -59.625 106.625 C-62.925 106.625 -66.225 106.625 -69.625 106.625 C-67.46974489 95.54771118 -65.02064883 84.77334291 -61.42919922 74.06689453 C-60.4846173 71.19873777 -59.58925666 68.31671533 -58.69140625 65.43359375 C-50.92470758 40.8588444 -41.77182051 13.94452731 -19.75 -1.375 C-12.76316963 -3.61078572 -6.59836885 -3.19519867 0 0 Z " fill="#060606" transform="translate(170.625,162.375)"/>
<path d="M0 0 C2.89902537 2.89902537 3.64948817 6.49066385 4.875 10.3125 C5.13748535 11.11905029 5.3999707 11.92560059 5.67041016 12.7565918 C6.20133616 14.39401956 6.72918528 16.03244827 7.25390625 17.671875 C7.92085295 19.75302804 8.59929571 21.82998153 9.28125 23.90625 C9.82265625 25.59234375 9.82265625 25.59234375 10.375 27.3125 C10.69210937 28.29863281 11.00921875 29.28476562 11.3359375 30.30078125 C12 33 12 33 12 38 C-9.45 38 -30.9 38 -53 38 C-35.00400802 23.60320641 -35.00400802 23.60320641 -28.83203125 24.21484375 C-28.22746094 24.47394531 -27.62289063 24.73304688 -27 25 C-26.67 25.99 -26.34 26.98 -26 28 C-20.89999421 28.30000034 -18.14434979 27.99859748 -14 25 C-8.05202214 17.59778086 -4.09434405 8.52469809 0 0 Z " fill="#030303" transform="translate(301,230)"/>
<path d="M0 0 C5.08643801 2.73885123 8.17004027 5.5101208 10 11 C10.62052493 17.20524932 9.09007143 21.71730363 6 27 C3.692466 29.78261453 2.22240411 30.78705188 -1.33203125 31.40625 C-5.67366029 31.66661756 -8.98735812 31.53976003 -12.5 28.8125 C-16.97614623 23.77683549 -17.4533397 19.20529609 -17.3125 12.65625 C-16.69801853 7.43315748 -14.06211722 4.89689898 -10.1875 1.625 C-6.35990051 -0.32632523 -4.24556929 -0.6065099 0 0 Z " fill="#F3F3F3" transform="translate(286,293)"/>
<path d="M0 0 C3.50724448 2.03858585 5.68867705 4.06603115 7 8 C7.49707055 13.64704736 7.79216901 18.44297816 5.1875 23.5625 C4.1046875 24.7690625 4.1046875 24.7690625 3 26 C2.484375 26.598125 1.96875 27.19625 1.4375 27.8125 C-1.57792851 30.30350616 -5.14642603 30.39647793 -8.93359375 30.34765625 C-12.72950754 29.70902425 -14.39662351 27.78933196 -17 25 C-19.56195744 19.75325155 -19.67451537 14.73338066 -19 9 C-15.07825828 0.70400791 -8.74340318 -2.73231349 0 0 Z " fill="#F7F7F7" transform="translate(140,294)"/>
<path d="M0 0 C0 0.33 0 0.66 0 1 C-1.26714844 0.96519531 -2.53429687 0.93039063 -3.83984375 0.89453125 C-5.53904911 0.86636763 -7.23826898 0.83907025 -8.9375 0.8125 C-9.76830078 0.78736328 -10.59910156 0.76222656 -11.45507812 0.73632812 C-21.30539905 0.62134383 -29.44140269 3.65741103 -37 10 C-44.28638693 17.63130466 -48.50081739 25.62144847 -48.3515625 36.25585938 C-48.31804687 37.18205078 -48.28453125 38.10824219 -48.25 39.0625 C-48.23195312 40.02349609 -48.21390625 40.98449219 -48.1953125 41.97460938 C-48.14868796 44.31749227 -48.08328169 46.6581829 -48 49 C-54.60895519 41.1074874 -55.60133043 33.87627265 -55.3359375 23.6484375 C-54.40641018 13.55333844 -49.43692278 6.70035855 -42 0 C-28.94220497 -9.0945665 -13.10250127 -8.48254418 0 0 Z " fill="#070707" transform="translate(245,115)"/>
<path d="M0 0 C2.90116056 2.90116056 2.84098703 4.93089879 3 9 C2.14857081 11.97030235 0.84188877 14.62953887 -0.5625 17.375 C-0.92947998 18.12015869 -1.29645996 18.86531738 -1.67456055 19.63305664 C-8.56741167 33.37827445 -8.56741167 33.37827445 -14 37 C-16.6875 37.125 -16.6875 37.125 -19 37 C-20.34070318 34.39939496 -21.67273354 31.79495084 -23 29.1875 C-23.3815625 28.44951172 -23.763125 27.71152344 -24.15625 26.95117188 C-24.5171875 26.23896484 -24.878125 25.52675781 -25.25 24.79296875 C-25.58515625 24.1383667 -25.9203125 23.48376465 -26.265625 22.80932617 C-27 21 -27 21 -27 18 C-26.34 17.67 -25.68 17.34 -25 17 C-24.71125 16.21625 -24.4225 15.4325 -24.125 14.625 C-22.81866082 11.57687525 -21.96066935 10.48033468 -19 9 C-17.6696875 9.2784375 -17.6696875 9.2784375 -16.3125 9.5625 C-11.54124422 10.19266586 -8.08676122 8.39756658 -4 6 C-1.60594122 3.96203692 -1.02682502 3.08047506 0 0 Z " fill="#090909" transform="translate(296,218)"/>
<path d="M0 0 C0.495 1.98 0.495 1.98 1 4 C0.31035156 4.01417969 -0.37929687 4.02835938 -1.08984375 4.04296875 C-10.76743773 4.53414979 -16.74568567 7.37121503 -23.5 14.3125 C-29.10829824 20.92367101 -33.11097705 28.29482033 -37 36 C-37.36593262 36.71849121 -37.73186523 37.43698242 -38.10888672 38.17724609 C-45.9194981 53.78122689 -50.90054724 70.36695031 -56 87 C-56.66 86.34 -57.32 85.68 -58 85 C-58.99 85.495 -58.99 85.495 -60 86 C-53.76262974 55.78773778 -40.33493355 19.23299725 -14.125 1 C-9.44032351 -0.49909648 -4.87617343 -0.23426456 0 0 Z " fill="#E3E3E3" transform="translate(164,156)"/>
<path d="M0 0 C0.33 0.99 0.66 1.98 1 3 C0.04060332 4.69036558 -0.96642853 6.35394174 -2 8 C-5.41785865 16.37807229 -5.5536317 27.90659396 -2.5 36.5 C2.3765068 46.54389296 10.17536286 52.56262959 20.5 56.25 C24.65270416 57.13986518 28.77229968 57.63570836 33 58 C33 58.66 33 59.32 33 60 C22.7924971 60.75301251 14.34983045 60.62586048 6 54 C-15.69912093 35.10404529 -15.69912093 35.10404529 -18 23 C-18.07708723 21.63199181 -18.10803609 20.26076408 -18.09765625 18.890625 C-18.09443359 18.13652344 -18.09121094 17.38242188 -18.08789062 16.60546875 C-18.07951172 15.82816406 -18.07113281 15.05085937 -18.0625 14.25 C-18.05798828 13.45722656 -18.05347656 12.66445312 -18.04882812 11.84765625 C-18.03708565 9.89840492 -18.01915146 7.94919262 -18 6 C-17.34 6 -16.68 6 -16 6 C-15.97421875 6.73863281 -15.9484375 7.47726563 -15.921875 8.23828125 C-15.491028 15.94456736 -14.73622199 25.26377801 -9 31 C-9.04640625 29.80503906 -9.0928125 28.61007813 -9.140625 27.37890625 C-9.61240149 10.17442883 -9.61240149 10.17442883 -5 4 C-2.25 1.4375 -2.25 1.4375 0 0 Z " fill="#EAEAEA" transform="translate(205,130)"/>
<path d="M0 0 C4.19357451 2.26214903 4.19357451 2.26214903 5.375 4.625 C4.529375 4.65078125 3.68375 4.6765625 2.8125 4.703125 C-4.38557833 5.06302892 -9.44865278 5.87074973 -15.625 9.625 C-15.625 8.965 -15.625 8.305 -15.625 7.625 C-16.676875 8.40875 -17.72875 9.1925 -18.8125 10 C-21.66771795 12.0509312 -24.35416626 13.33388142 -27.625 14.625 C-29.31204193 15.93245749 -30.97860035 17.26672029 -32.625 18.625 C-34.27761839 19.64804948 -35.94291365 20.65116054 -37.625 21.625 C-38.615 22.285 -39.605 22.945 -40.625 23.625 C-36.84419069 13.04637194 -28.90169215 4.94894348 -19.8125 -1.3125 C-12.82364778 -3.64211741 -6.62003759 -3.20569156 0 0 Z " fill="#121212" transform="translate(170.625,162.375)"/>
<path d="M0 0 C5.08643801 2.73885123 8.17004027 5.5101208 10 11 C10.62052493 17.20524932 9.09007143 21.71730363 6 27 C3.692466 29.78261453 2.22240411 30.78705188 -1.33203125 31.40625 C-5.67366029 31.66661756 -8.98735812 31.53976003 -12.5 28.8125 C-16.97614623 23.77683549 -17.4533397 19.20529609 -17.3125 12.65625 C-16.69801853 7.43315748 -14.06211722 4.89689898 -10.1875 1.625 C-6.35990051 -0.32632523 -4.24556929 -0.6065099 0 0 Z M-12 9 C-13.58890167 13.76670501 -13.57605363 17.57358149 -11.6875 22.25 C-9.80944966 25.60417635 -9.80944966 25.60417635 -7 28 C-3.55757885 27.87705639 -1.02316581 27.74091317 1.8125 25.6875 C5.35537509 20.65288803 5.9137379 16.05351358 5 10 C3.68616935 7.02041978 2.65051628 6.14297061 0 4 C-5.91208463 2.83869766 -8.34577103 4.37847512 -12 9 Z " fill="#191919" transform="translate(286,293)"/>
<path d="M0 0 C1.32 0 2.64 0 4 0 C4.23187012 0.60996826 4.46374023 1.21993652 4.70263672 1.84838867 C5.7596485 4.62826099 6.81731806 7.40788259 7.875 10.1875 C8.23980469 11.14720703 8.60460937 12.10691406 8.98046875 13.09570312 C9.51220703 14.49272461 9.51220703 14.49272461 10.0546875 15.91796875 C10.37937012 16.77156982 10.70405273 17.6251709 11.03857422 18.50463867 C11.70160625 20.22552502 12.39817831 21.93373421 13.12158203 23.63012695 C14 26 14 26 14 29 C12.35 29 10.7 29 9 29 C8.34 26.69 7.68 24.38 7 22 C3.37 22 -0.26 22 -4 22 C-4.2475 22.969375 -4.495 23.93875 -4.75 24.9375 C-5.1625 25.948125 -5.575 26.95875 -6 28 C-8.125 28.875 -8.125 28.875 -10 29 C-9.42098044 24.86414598 -8.47957878 21.25866229 -6.93359375 17.3828125 C-6.53076172 16.36445313 -6.12792969 15.34609375 -5.71289062 14.296875 C-5.29201172 13.25015625 -4.87113281 12.2034375 -4.4375 11.125 C-4.01275391 10.05507813 -3.58800781 8.98515625 -3.15039062 7.8828125 C-2.10553151 5.25305474 -1.05526218 2.62559658 0 0 Z " fill="#141414" transform="translate(216,294)"/>
<path d="M0 0 C3.50724448 2.03858585 5.68867705 4.06603115 7 8 C7.49707055 13.64704736 7.79216901 18.44297816 5.1875 23.5625 C4.1046875 24.7690625 4.1046875 24.7690625 3 26 C2.484375 26.598125 1.96875 27.19625 1.4375 27.8125 C-1.57792851 30.30350616 -5.14642603 30.39647793 -8.93359375 30.34765625 C-12.72950754 29.70902425 -14.39662351 27.78933196 -17 25 C-19.56195744 19.75325155 -19.67451537 14.73338066 -19 9 C-15.07825828 0.70400791 -8.74340318 -2.73231349 0 0 Z M-12.375 5.375 C-15.02828998 9.66108381 -15.54036884 12.98761313 -15 18 C-13.65059348 21.31217963 -12.5207227 23.4792773 -10 26 C-5.94559058 26.45938737 -5.94559058 26.45938737 -2 26 C1.55666674 22.53452984 3.15407047 19.65297702 3.3125 14.75 C3.27532426 10.14020848 2.02532867 7.5592102 -1 4 C-5.28513787 1.85743106 -8.99543005 1.99543005 -12.375 5.375 Z " fill="#151515" transform="translate(140,294)"/>
<path d="M0 0 C3.4375 1.5 3.4375 1.5 6 3 C5.67 4.32 5.34 5.64 5 7 C3.9790625 6.505 3.9790625 6.505 2.9375 6 C-0.6315661 4.78499878 -3.25125498 4.591046 -7 5 C-9.36497439 6.86708505 -10.66030715 8.32061431 -12 11 C-12.54930958 16.37689567 -12.54185108 20.64079868 -9 25 C-5.82587823 26.58706088 -2.46361333 26.28477127 1 26 C3.88214887 25.11785113 3.88214887 25.11785113 6 24 C5.75 26.375 5.75 26.375 5 29 C0.67349341 31.82290004 -4.02110923 31.75509244 -9 31 C-12.81784994 29.22204078 -14.77023123 26.37800668 -16.9375 22.8125 C-18.30956935 17.88919232 -18.43622706 13.92420706 -17 9 C-12.86929751 2.10704861 -8.08110932 -0.69664736 0 0 Z " fill="#252525" transform="translate(169,293)"/>
<path d="M0 0 C3.4375 1.5 3.4375 1.5 6 3 C5.67 4.32 5.34 5.64 5 7 C3.9790625 6.505 3.9790625 6.505 2.9375 6 C-0.6315661 4.78499878 -3.25125498 4.591046 -7 5 C-9.99793734 7.36679263 -11.79695672 9.36115064 -12.2734375 13.20703125 C-12.44901404 17.71124483 -12.48148788 20.24767519 -10 24.125 C-6.1362357 26.53985269 -3.43610805 26.70655753 1 26 C3.88214887 25.11785113 3.88214887 25.11785113 6 24 C5.75 26.375 5.75 26.375 5 29 C0.67509538 31.80586653 -4.03143691 31.89159798 -9 31 C-12.97857779 28.7316382 -15.5449891 26.36503271 -17 22 C-17.1447963 20.04524991 -17.22067502 18.0848862 -17.25 16.125 C-17.28867188 14.58199219 -17.28867188 14.58199219 -17.328125 13.0078125 C-16.81686411 8.32125435 -14.92570847 5.81281719 -11.4375 2.75 C-7.39670749 -0.1510818 -5.00610654 -0.33374044 0 0 Z " fill="#161616" transform="translate(197,293)"/>
<path d="M0 0 C1.98828125 0.4921875 1.98828125 0.4921875 3.98828125 1.4921875 C3.65828125 2.4821875 3.32828125 3.4721875 2.98828125 4.4921875 C-0.31171875 4.4921875 -3.61171875 4.4921875 -7.01171875 4.4921875 C-7.01171875 6.1421875 -7.01171875 7.7921875 -7.01171875 9.4921875 C-4.86738524 11.58786705 -4.86738524 11.58786705 -2.07421875 13.2421875 C-1.15769531 13.83515625 -0.24117187 14.428125 0.703125 15.0390625 C1.83427734 15.75835937 1.83427734 15.75835937 2.98828125 16.4921875 C4.55769323 18.06159948 4.23326595 19.63353744 4.30078125 21.8046875 C4.24131275 24.91687253 4.10066269 26.29185537 2.55078125 29.0546875 C-1.19101769 31.15374544 -4.80859086 31.15787626 -9.01171875 30.4921875 C-10.00171875 29.8321875 -10.99171875 29.1721875 -12.01171875 28.4921875 C-12.01171875 27.1721875 -12.01171875 25.8521875 -12.01171875 24.4921875 C-10.68140625 25.018125 -10.68140625 25.018125 -9.32421875 25.5546875 C-5.94968749 26.50974352 -4.31485723 26.46369882 -1.01171875 25.4921875 C-0.17232606 22.7528916 -0.17232606 22.7528916 -1.01171875 19.4921875 C-3.46891557 17.62629473 -5.99437678 16.21856052 -8.7265625 14.7890625 C-11.01171875 13.4921875 -11.01171875 13.4921875 -12.01171875 11.4921875 C-12.49569836 7.21703427 -12.43472414 5.14716359 -10.07421875 1.4921875 C-6.26168379 -0.99763125 -4.35359075 -0.71706201 0 0 Z " fill="#131313" transform="translate(246.01171875,293.5078125)"/>
<path d="M0 0 C0.33 0.99 0.66 1.98 1 3 C5.455 2.505 5.455 2.505 10 2 C8.68 7.61 7.36 13.22 6 19 C2.7 19 -0.6 19 -4 19 C-2.02 9.595 -2.02 9.595 0 0 Z " fill="#121212" transform="translate(105,250)"/>
<path d="M0 0 C-0.69631562 6.97581651 -6.14121407 11.42411281 -11 16 C-13.56571425 17.83676366 -16.02510007 18.97808781 -19 20 C-20.13695312 20.44085938 -20.13695312 20.44085938 -21.296875 20.890625 C-27.89216649 23.20107743 -34.0639764 23.32177429 -41 23 C-41 22.67 -41 22.34 -41 22 C-37.37 22 -33.74 22 -30 22 C-30 21.34 -30 20.68 -30 20 C-32.97 20 -35.94 20 -39 20 C-39 19.67 -39 19.34 -39 19 C-37.90945312 18.97873047 -37.90945312 18.97873047 -36.796875 18.95703125 C-26.32213553 18.46015258 -16.47582576 15.65816298 -9 8 C-7.26130621 5.71096335 -5.63696952 3.36451153 -4 1 C-2 0 -2 0 0 0 Z " fill="#DCDCDC" transform="translate(268,168)"/>
<path d="M0 0 C0.66 0.33 1.32 0.66 2 1 C1.45859375 1.96099609 1.45859375 1.96099609 0.90625 2.94140625 C-1.86273597 8.10248844 -3.92329911 11.9985558 -3 18 C-1.64184747 21.27191292 -0.50104494 23.49895506 2 26 C3.98821313 26.39764263 5.98944339 26.73775349 8 27 C7.67 27.66 7.34 28.32 7 29 C-1.1 29.62307692 -1.1 29.62307692 -4.4375 27.3125 C-8.35581357 21.51339591 -8.82328976 15.83732109 -8 9 C-5.98050393 4.96100786 -3.79095766 2.43704421 0 0 Z " fill="#111111" transform="translate(277,294)"/>
<path d="M0 0 C1.65322266 0.01740234 1.65322266 0.01740234 3.33984375 0.03515625 C4.99693359 0.04869141 4.99693359 0.04869141 6.6875 0.0625 C7.54214844 0.07410156 8.39679688 0.08570313 9.27734375 0.09765625 C10.09400001 3.22485217 10.69337639 5.85260167 10.27734375 9.09765625 C8.5859375 10.86328125 8.5859375 10.86328125 6.27734375 12.09765625 C3.69921875 11.515625 3.69921875 11.515625 1.02734375 10.28515625 C0.1353125 9.88683594 -0.75671875 9.48851562 -1.67578125 9.078125 C-2.35125 8.75457031 -3.02671875 8.43101562 -3.72265625 8.09765625 C-3.06265625 7.76765625 -2.40265625 7.43765625 -1.72265625 7.09765625 C-2.38265625 5.11765625 -3.04265625 3.13765625 -3.72265625 1.09765625 C-2.72265625 0.09765625 -2.72265625 0.09765625 0 0 Z " fill="#121212" transform="translate(167.72265625,148.90234375)"/>
<path d="M0 0 C1.65 0 3.3 0 5 0 C5 9.57 5 19.14 5 29 C3.68 29 2.36 29 1 29 C0.67 19.43 0.34 9.86 0 0 Z " fill="#0C0C0C" transform="translate(257,294)"/>
<path d="M0 0 C3.4375 1.5 3.4375 1.5 6 3 C5.67 4.32 5.34 5.64 5 7 C3.9790625 6.505 3.9790625 6.505 2.9375 6 C-0.6315661 4.78499878 -3.25125498 4.591046 -7 5 C-10.54030044 7.62993747 -12.64904113 11.30563607 -15 15 C-15.66 14.67 -16.32 14.34 -17 14 C-17.5022251 11.23776197 -17.35673215 9.54325877 -15.8046875 7.1796875 C-11.06055821 1.48196438 -7.66113722 -0.66044286 0 0 Z " fill="#101010" transform="translate(169,293)"/>
<path d="M0 0 C0.66 0.33 1.32 0.66 2 1 C1.45859375 1.8353125 1.45859375 1.8353125 0.90625 2.6875 C-3.85874916 10.52327639 -3.47533921 16.14796471 -2 25 C-3.32 25 -4.64 25 -6 25 C-8.42464516 19.63668491 -8.69988184 14.8124333 -8 9 C-5.98050393 4.96100786 -3.79095766 2.43704421 0 0 Z " fill="#0C0C0C" transform="translate(129,294)"/>
<path d="M0 0 C0.66 0 1.32 0 2 0 C2.61790729 7.26041063 0.53374104 12.94460639 -4.125 18.5625 C-8.36702681 20.6835134 -12.34452533 20.32543124 -17 20 C-17 19.67 -17 19.34 -17 19 C-13.535 18.505 -13.535 18.505 -10 18 C-10 17.34 -10 16.68 -10 16 C-9.38125 15.95875 -8.7625 15.9175 -8.125 15.875 C-7.42375 15.58625 -6.7225 15.2975 -6 15 C-4.89797113 12.36821272 -4.89797113 12.36821272 -4 9 C-2.72772152 5.97217447 -1.36698125 2.98612409 0 0 Z " fill="#1B1B1B" transform="translate(294,304)"/>
<path d="M0 0 C0.33 1.32 0.66 2.64 1 4 C0.28714844 4.03738281 -0.42570312 4.07476562 -1.16015625 4.11328125 C-7.0993423 4.52095082 -11.69121747 5.28662226 -17 8 C-17 7.34 -17 6.68 -17 6 C-18.65 7.32 -20.3 8.64 -22 10 C-22.66 9.67 -23.32 9.34 -24 9 C-16.12720507 1.80268156 -10.76164083 -0.51701833 0 0 Z " fill="#DBDBDB" transform="translate(164,156)"/>
<path d="M0 0 C2.5 0.1875 2.5 0.1875 5 1 C7 4 7 4 6.625 6.6875 C6.41875 7.450625 6.2125 8.21375 6 9 C3.69 9.33 1.38 9.66 -1 10 C-3 7 -3 7 -2.75 4.4375 C-2 2 -2 2 0 0 Z " fill="#F4F4F4" transform="translate(19,316)"/>
<path d="M0 0 C1.20725181 3.62175543 0.71973554 4.06454898 -0.875 7.375 C-3.4909187 13.47279669 -3.79404258 19.4299583 -4 26 C-4.33 26 -4.66 26 -5 26 C-5 22.04 -5 18.08 -5 14 C-5.66 14 -6.32 14 -7 14 C-7 18.95 -7 23.9 -7 29 C-7.33 29 -7.66 29 -8 29 C-8.83408651 10.32572986 -8.83408651 10.32572986 -4 3 C-1.859375 1.23828125 -1.859375 1.23828125 0 0 Z " fill="#D6D6D6" transform="translate(194,122)"/>
<path d="M0 0 C2.4375 0.9375 2.4375 0.9375 3.75 3.5 C4.0903125 4.7065625 4.0903125 4.7065625 4.4375 5.9375 C2.6875 8 2.6875 8 0.4375 9.9375 C-2.58061422 9.75996387 -3.39985215 9.10014785 -5.5625 6.9375 C-5.875 4.4375 -5.875 4.4375 -5.5625 1.9375 C-2.5625 -0.0625 -2.5625 -0.0625 0 0 Z " fill="#F4F4F4" transform="translate(403.5625,393.0625)"/>
<path d="M0 0 C1.1446875 0.3403125 1.1446875 0.3403125 2.3125 0.6875 C2.6425 2.9975 2.9725 5.3075 3.3125 7.6875 C0.3125 9.6875 0.3125 9.6875 -2.375 9.3125 C-3.138125 9.10625 -3.90125 8.9 -4.6875 8.6875 C-6.01591008 3.25309513 -6.01591008 3.25309513 -4.5625 0.75 C-2.6875 -0.3125 -2.6875 -0.3125 0 0 Z " fill="#F4F4F4" transform="translate(403.6875,8.3125)"/>
<path d="M0 0 C3.63559661 3.43361902 6.36113346 6.7973607 9 11 C5.8125 11.875 5.8125 11.875 2 12 C-0.21299892 10.21974097 -1.38796831 8.39362281 -3 6 C-2.34 5.67 -1.68 5.34 -1 5 C-0.34444881 2.47266765 -0.34444881 2.47266765 0 0 Z " fill="#E9E9E9" transform="translate(277,309)"/>
<path d="M0 0 C-3.37051036 2.77822865 -6.80151659 5.24055887 -10.5 7.5625 C-11.4178125 8.14128906 -12.335625 8.72007812 -13.28125 9.31640625 C-14.1784375 9.87199219 -15.075625 10.42757813 -16 11 C-17.34578125 11.84884766 -17.34578125 11.84884766 -18.71875 12.71484375 C-21 14 -21 14 -23 14 C-21.70401211 11.10895008 -20.50703864 8.96981607 -18 7 C-17.0925 6.71125 -16.185 6.4225 -15.25 6.125 C-12.31120797 5.10772583 -10.82770913 4.22884412 -8.4375 2.375 C-5.53822245 0.1779919 -3.72664641 -0.5646434 0 0 Z " fill="#171717" transform="translate(323,363)"/>
<path d="M0 0 C0.66 0 1.32 0 2 0 C0.70989008 2.87793751 -0.57361806 4.96183917 -3 7 C-6.69302176 8.23100725 -10.16019717 8.59489903 -14 8 C-16.5 6 -16.5 6 -18 4 C-17.01 3.01 -16.02 2.02 -15 1 C-14.505 1.7425 -14.505 1.7425 -14 2.5 C-11.38820183 4.45884863 -9.13893309 4.47107681 -5.93359375 4.37109375 C-3.06370061 3.82030618 -1.79533636 2.20964475 0 0 Z " fill="#181818" transform="translate(143,316)"/>
<path d="M0 0 C0.66 0.33 1.32 0.66 2 1 C-0.56225122 5.82306111 -3.96814275 10.30718529 -8 14 C-8.99 14 -9.98 14 -11 14 C-11.99 14.495 -11.99 14.495 -13 15 C-11.6173971 10.76202153 -9.68864998 8.33512238 -6.5 5.25 C-5.7059375 4.47140625 -4.911875 3.6928125 -4.09375 2.890625 C-2 1 -2 1 0 0 Z " fill="#E7E7E7" transform="translate(204,110)"/>
<path d="M0 0 C2.95183101 2.95183101 3.08663988 5.95511947 4 10 C-2.75 12 -2.75 12 -5 12 C-3.68938409 7.76570244 -2.05643741 3.92592596 0 0 Z " fill="#1E1E1E" transform="translate(301,230)"/>
<path d="M0 0 C1.67588141 2.51382212 2.94030311 4.82947288 4.1875 7.5625 C4.55230469 8.34753906 4.91710937 9.13257813 5.29296875 9.94140625 C5.52628906 10.62074219 5.75960937 11.30007812 6 12 C5 14 5 14 2 16 C1.29911844 14.25531628 0.61475991 12.50398839 -0.0625 10.75 C-0.44535156 9.77546875 -0.82820312 8.8009375 -1.22265625 7.796875 C-2.014715 4.94705557 -2.08487377 3.70288552 -1 1 C-0.67 0.67 -0.34 0.34 0 0 Z " fill="#D7D7D7" transform="translate(172,222)"/>
<path d="M0 0 C0.99 0.33 1.98 0.66 3 1 C1.68 3.64 0.36 6.28 -1 9 C-3.4375 8.625 -3.4375 8.625 -6 8 C-6.33 7.34 -6.66 6.68 -7 6 C-2.25 1.125 -2.25 1.125 0 0 Z " fill="#121212" transform="translate(149,227)"/>
<path d="M0 0 C3.11223313 4.14964417 3.52003578 6.00837213 4 11 C1.36 11 -1.28 11 -4 11 C-2.68 7.37 -1.36 3.74 0 0 Z " fill="#E5E5E5" transform="translate(217,301)"/>
<path d="M0 0 C5.26053037 -0.31563182 8.44573816 0.33409063 13 3 C12.67 4.32 12.34 5.64 12 7 C11.319375 6.690625 10.63875 6.38125 9.9375 6.0625 C6.63034088 4.86629351 3.48454122 4.40994603 0 4 C0 2.68 0 1.36 0 0 Z " fill="#232323" transform="translate(162,293)"/>
<path d="M0 0 C3.96 0 7.92 0 12 0 C12 1.32 12 2.64 12 4 C8.04 4 4.08 4 0 4 C0 2.68 0 1.36 0 0 Z " fill="#D7D7D7" transform="translate(281,149)"/>
<path d="M0 0 C3.96 0 7.92 0 12 0 C12 1.32 12 2.64 12 4 C8.04 4 4.08 4 0 4 C0 2.68 0 1.36 0 0 Z " fill="#D0D0D0" transform="translate(165,149)"/>
<path d="M0 0 C0.33 0 0.66 0 1 0 C1.125 6.75 1.125 6.75 0 9 C-1.65532623 10.01866229 -3.32260138 11.01810813 -5 12 C-5.66 12.66 -6.32 13.32 -7 14 C-9.68839385 14.26991906 -12.29141936 14.08737357 -15 14 C-15 13.67 -15 13.34 -15 13 C-13.9275 12.95875 -12.855 12.9175 -11.75 12.875 C-7.82970117 12.36215267 -7.82970117 12.36215267 -5.75 9.25 C-4.88375 7.64125 -4.88375 7.64125 -4 6 C-1 1 -1 1 0 0 Z " fill="#262626" transform="translate(146,307)"/>
<path d="M0 0 C0.66 5.61 1.32 11.22 2 17 C-3.78417266 9.76978417 -3.78417266 9.76978417 -4.3125 5.4375 C-4 3 -4 3 -2.5625 1.1875 C-1 0 -1 0 0 0 Z " fill="#121212" transform="translate(195,147)"/>
<path d="M0 0 C1.32 0 2.64 0 4 0 C4 3.96 4 7.92 4 12 C2.68 12 1.36 12 0 12 C0 8.04 0 4.08 0 0 Z " fill="#E5E5E5" transform="translate(227,87)"/>
<path d="M0 0 C3 1 3 1 4 3 C3.566875 3.37125 3.13375 3.7425 2.6875 4.125 C0.53847015 6.51281095 -0.64757984 9.1019568 -2 12 C-2.99 12 -3.98 12 -5 12 C-5.33 11.34 -5.66 10.68 -6 10 C-5.29296875 8.125 -5.29296875 8.125 -4.1875 6 C-3.83042969 5.29875 -3.47335938 4.5975 -3.10546875 3.875 C-2 2 -2 2 0 0 Z " fill="#E2E2E2" transform="translate(159,213)"/>
<path d="M0 0 C0.99 0.33 1.98 0.66 3 1 C2.01 4.63 1.02 8.26 0 12 C-1.32 12 -2.64 12 -4 12 C-3.71788123 10.3733152 -3.42397625 8.74867104 -3.125 7.125 C-2.96257812 6.22007812 -2.80015625 5.31515625 -2.6328125 4.3828125 C-2 2 -2 2 0 0 Z " fill="#E6E6E6" transform="translate(115,255)"/>
<path d="M0 0 C0 0.66 0 1.32 0 2 C0.66 2.33 1.32 2.66 2 3 C-4.34823202 5.30844801 -10.29481414 5.19818283 -17 5 C-17 4.67 -17 4.34 -17 4 C-13.37 4 -9.74 4 -6 4 C-6 3.34 -6 2.68 -6 2 C-8.97 2 -11.94 2 -15 2 C-15 1.67 -15 1.34 -15 1 C-13.06263299 0.83179449 -11.12510094 0.66548905 -9.1875 0.5 C-7.56908203 0.36078125 -7.56908203 0.36078125 -5.91796875 0.21875 C-3 0 -3 0 0 0 Z " fill="#CDCDCD" transform="translate(244,186)"/>
<path d="M0 0 C2.64 0.33 5.28 0.66 8 1 C8.625 2.875 8.625 2.875 9 5 C8.34 5.66 7.68 6.32 7 7 C7 6.01 7 5.02 7 4 C5.576875 4.99 5.576875 4.99 4.125 6 C1 8 1 8 -1 8 C-0.67 5.36 -0.34 2.72 0 0 Z " fill="#121212" transform="translate(191,131)"/>
<path d="M0 0 C-0.58021778 3.2548802 -1.52647141 4.93652408 -3.875 7.25 C-4.38804687 7.77078125 -4.90109375 8.2915625 -5.4296875 8.828125 C-7 10 -7 10 -10 10 C-9.41978222 6.7451198 -8.47352859 5.06347592 -6.125 2.75 C-5.61195313 2.22921875 -5.09890625 1.7084375 -4.5703125 1.171875 C-3 0 -3 0 0 0 Z " fill="#E6E6E6" transform="translate(275,105)"/>
<path d="M0 0 C1.6274637 0.61855631 3.25190356 1.24507305 4.875 1.875 C5.77992188 2.22304687 6.68484375 2.57109375 7.6171875 2.9296875 C10 4 10 4 12 6 C11.34 6 10.68 6 10 6 C10 6.66 10 7.32 10 8 C8.53932801 7.54917531 7.08151968 7.08906463 5.625 6.625 C4.81289062 6.36976562 4.00078125 6.11453125 3.1640625 5.8515625 C1 5 1 5 -1 3 C-0.67 2.01 -0.34 1.02 0 0 Z " fill="#DCDCDC" transform="translate(234,106)"/>
<path d="M0 0 C3.35250701 0.57575664 4.93818629 1.59306263 7.25 4.0625 C8.03117188 4.88427734 8.03117188 4.88427734 8.828125 5.72265625 C9.21484375 6.14417969 9.6015625 6.56570312 10 7 C9.67 7.99 9.34 8.98 9 10 C5.17647894 8.4422692 2.70794407 6.08404742 0 3 C0 2.01 0 1.02 0 0 Z " fill="#ECECEC" transform="translate(183,105)"/>
<path d="M0 0 C-0.375 2.4375 -0.375 2.4375 -1 5 C-3.64458379 6.32229189 -5.67761301 6.09677194 -8.625 6.0625 C-9.62789062 6.05347656 -10.63078125 6.04445313 -11.6640625 6.03515625 C-12.43492187 6.02355469 -13.20578125 6.01195312 -14 6 C-14 5.34 -14 4.68 -14 4 C-12.7625 3.896875 -11.525 3.79375 -10.25 3.6875 C-6.27295746 3.20969277 -3.5522304 0 0 0 Z " fill="#010101" transform="translate(175,317)"/>
<path d="M0 0 C1.45880109 0.14107747 2.91703551 0.28802415 4.375 0.4375 C5.59316406 0.55931641 5.59316406 0.55931641 6.8359375 0.68359375 C9 1 9 1 11 2 C10.67 2.99 10.34 3.98 10 5 C6.7 4.67 3.4 4.34 0 4 C0 2.68 0 1.36 0 0 Z " fill="#292929" transform="translate(239,293)"/>
<path d="M0 0 C-0.99 0.33 -1.98 0.66 -3 1 C-2.01 1.66 -1.02 2.32 0 3 C-3.63 4.32 -7.26 5.64 -11 7 C-11 5.33333333 -11 3.66666667 -11 2 C-3.57142857 -1.57142857 -3.57142857 -1.57142857 0 0 Z " fill="#DADADA" transform="translate(216,107)"/>
<path d="M0 0 C5.26053037 -0.31563182 8.44573816 0.33409063 13 3 C12.67 4.32 12.34 5.64 12 7 C8.7 6.01 5.4 5.02 2 4 C2.99 3.34 3.98 2.68 5 2 C3.35 1.67 1.7 1.34 0 1 C0 0.67 0 0.34 0 0 Z " fill="#2F2F2F" transform="translate(190,293)"/>
<path d="M0 0 C0.33 0 0.66 0 1 0 C0.88490339 1.41750563 0.75746342 2.83401169 0.625 4.25 C0.55539063 5.03890625 0.48578125 5.8278125 0.4140625 6.640625 C-0.01507113 9.085877 -0.78600638 10.84836903 -2 13 C-2.33 12.34 -2.66 11.68 -3 11 C-3.99 11.495 -3.99 11.495 -5 12 C-3.1011236 3.23595506 -3.1011236 3.23595506 0 0 Z " fill="#E7E7E7" transform="translate(109,230)"/>
<path d="M0 0 C1.32 0.33 2.64 0.66 4 1 C2.63016497 4.16115776 2.0109362 4.9927092 -1 7 C-3.48046875 7.1953125 -3.48046875 7.1953125 -6.1875 7.125 C-7.08855469 7.10695313 -7.98960937 7.08890625 -8.91796875 7.0703125 C-9.60503906 7.04710937 -10.29210937 7.02390625 -11 7 C-11 6.67 -11 6.34 -11 6 C-7.535 5.505 -7.535 5.505 -4 5 C-4 4.34 -4 3.68 -4 3 C-2.68 2.67 -1.36 2.34 0 2 C0 1.34 0 0.68 0 0 Z " fill="#2F2F2F" transform="translate(288,317)"/>
<path d="M0 0 C-0.41421969 4.83256305 -2.46413986 6.82679218 -6 10 C-6 9.34 -6 8.68 -6 8 C-6.66 8 -7.32 8 -8 8 C-6.48291727 4.46014029 -4.24676932 0 0 0 Z " fill="#DFDFDF" transform="translate(268,168)"/>
<path d="M0 0 C0.99 0 1.98 0 3 0 C3 3.96 3 7.92 3 12 C2.01 12 1.02 12 0 12 C0 8.04 0 4.08 0 0 Z " fill="#F4F4F4" transform="translate(227,203)"/>
<path d="M0 0 C-0.54074373 3.78520613 -2.07572746 5.59177555 -5 8 C-5.99 8 -6.98 8 -8 8 C-5.18918919 0 -5.18918919 0 0 0 Z " fill="#ECECEC" transform="translate(262,176)"/>
<path d="M0 0 C0 1.32 0 2.64 0 4 C-0.94875 4.45375 -1.8975 4.9075 -2.875 5.375 C-6.00313679 6.80238254 -6.00313679 6.80238254 -8 9 C-8.375 6.75 -8.375 6.75 -8 4 C-3.02702703 0 -3.02702703 0 0 0 Z " fill="#030303" transform="translate(198,135)"/>
<path d="M0 0 C4.08072342 0.55144911 4.91330796 0.91330796 8 4 C2.72 3.67 -2.56 3.34 -8 3 C-8 2.67 -8 2.34 -8 2 C-5.36 2 -2.72 2 0 2 C0 1.34 0 0.68 0 0 Z " fill="#404040" transform="translate(237,112)"/>
<path d="M0 0 C0.66 0 1.32 0 2 0 C2 0.99 2 1.98 2 3 C-3.34883721 8 -3.34883721 8 -6 8 C-6.33 7.01 -6.66 6.02 -7 5 C-6.030625 4.360625 -5.06125 3.72125 -4.0625 3.0625 C-1.23963731 1.3034741 -1.23963731 1.3034741 0 0 Z " fill="#EAEAEA" transform="translate(145,162)"/>
<path d="M0 0 C4.875 1.75 4.875 1.75 6 4 C2.7 4 -0.6 4 -4 4 C-2.68 2.68 -1.36 1.36 0 0 Z " fill="#0B0B0B" transform="translate(168,162)"/>
<path d="M0 0 C3.63 0 7.26 0 11 0 C11.33 1.32 11.66 2.64 12 4 C9.03 4 6.06 4 3 4 C3 3.67 3 3.34 3 3 C4.98 3 6.96 3 9 3 C9 2.34 9 1.68 9 1 C6.03 1 3.06 1 0 1 C0 0.67 0 0.34 0 0 Z " fill="#BCBCBC" transform="translate(153,156)"/>
<path d="M0 0 C0.99 0 1.98 0 3 0 C3 1.98 3 3.96 3 6 C1.02 6.99 1.02 6.99 -1 8 C-0.67 5.36 -0.34 2.72 0 0 Z " fill="#0C0C0C" transform="translate(181,300)"/>
<path d="M0 0 C0.33 0.99 0.66 1.98 1 3 C-0.28650706 3.69710731 -1.57940665 4.38242876 -2.875 5.0625 C-3.95394531 5.63677734 -3.95394531 5.63677734 -5.0546875 6.22265625 C-5.69664062 6.47917969 -6.33859375 6.73570312 -7 7 C-7.66 6.67 -8.32 6.34 -9 6 C-6.11912454 3.59927045 -3.43595166 1.52708963 0 0 Z " fill="#F4F4F4" transform="translate(325,367)"/>
<path d="M0 0 C0.33 0.66 0.66 1.32 1 2 C-0.29017414 2.98113243 -1.58219106 3.95984199 -2.875 4.9375 C-3.59429687 5.48277344 -4.31359375 6.02804688 -5.0546875 6.58984375 C-7 8 -7 8 -9 9 C-9 7.35 -9 5.7 -9 4 C-6.03 2.68 -3.06 1.36 0 0 Z " fill="#555555" transform="translate(255,184)"/>
<path d="M0 0 C0.66 0.33 1.32 0.66 2 1 C1.01 3.64 0.02 6.28 -1 9 C-1.33 7.68 -1.66 6.36 -2 5 C-2.66 4.67 -3.32 4.34 -4 4 C-2.68 2.68 -1.36 1.36 0 0 Z " fill="#1D1D1D" transform="translate(186,295)"/>
<path d="M0 0 C0 1.98 0 3.96 0 6 C-1.65 6.66 -3.3 7.32 -5 8 C-4.6875 5.125 -4.6875 5.125 -4 2 C-1 0 -1 0 0 0 Z " fill="#E0E0E0" transform="translate(222,246)"/>
<path d="M0 0 C0.99 0 1.98 0 3 0 C3 0.99 3 1.98 3 3 C3.99 3.33 4.98 3.66 6 4 C3.45297384 5.27351308 2.5717055 4.80191925 -0.125 4.0625 C-0.84945313 3.86785156 -1.57390625 3.67320313 -2.3203125 3.47265625 C-2.87460938 3.31667969 -3.42890625 3.16070312 -4 3 C-2.68 2.67 -1.36 2.34 0 2 C0 1.34 0 0.68 0 0 Z " fill="#D9D9D9" transform="translate(257,12)"/>
<path d="M0 0 C0.99 0.33 1.98 0.66 3 1 C2.34 3.31 1.68 5.62 1 8 C-0.5625 6.75 -0.5625 6.75 -2 5 C-1.74853421 2.86254078 -1.54074221 1.54074221 0 0 Z " fill="#D5D5D5" transform="translate(115,255)"/>
<path d="M0 0 C2.97 0 5.94 0 9 0 C9 0.66 9 1.32 9 2 C4.545 2.495 4.545 2.495 0 3 C0 2.01 0 1.02 0 0 Z " fill="#F8F8F8" transform="translate(153,157)"/>
<path d="M0 0 C0.66 0.33 1.32 0.66 2 1 C-2.455 4.465 -2.455 4.465 -7 8 C-7.66 7.34 -8.32 6.68 -9 6 C-6.03 4.02 -3.06 2.04 0 0 Z " fill="#D6D6D6" transform="translate(321,364)"/>
<path d="M0 0 C-0.33 1.65 -0.66 3.3 -1 5 C-2.32 5.33 -3.64 5.66 -5 6 C-5 4.68 -5 3.36 -5 2 C-2 0 -2 0 0 0 Z " fill="#222222" transform="translate(175,317)"/>
<path d="M0 0 C-0.61875 0.28875 -1.2375 0.5775 -1.875 0.875 C-4.13325765 1.93720042 -4.13325765 1.93720042 -6 4 C-8.125 3.625 -8.125 3.625 -10 3 C-7.29536552 -0.8183075 -4.37912428 -0.24787496 0 0 Z " fill="#E5E5E5" transform="translate(197,297)"/>
<path d="M0 0 C0.99 0.33 1.98 0.66 3 1 C1.71475739 1.86380259 0.42157581 2.71580369 -0.875 3.5625 C-1.59429687 4.03816406 -2.31359375 4.51382812 -3.0546875 5.00390625 C-3.69664062 5.33261719 -4.33859375 5.66132813 -5 6 C-5.66 5.67 -6.32 5.34 -7 5 C-5.90554162 4.13342884 -4.79902219 3.28207276 -3.6875 2.4375 C-3.07261719 1.96183594 -2.45773437 1.48617188 -1.82421875 0.99609375 C-1.22222656 0.66738281 -0.62023437 0.33867187 0 0 Z " fill="#F4F4F4" transform="translate(324,291)"/>
<path d="M0 0 C-3.3 1.32 -6.6 2.64 -10 4 C-8 0 -8 0 -5.5625 -0.8125 C-3 -1 -3 -1 0 0 Z " fill="#212121" transform="translate(294,381)"/>
<path d="M0 0 C-1.28519565 2.86697492 -2.57129254 4.97607712 -5 7 C-5.66 7 -6.32 7 -7 7 C-3.86206897 0 -3.86206897 0 0 0 Z " fill="#0F0F0F" transform="translate(145,316)"/>
<path d="M0 0 C2.31 0.66 4.62 1.32 7 2 C6.67 2.99 6.34 3.98 6 5 C4.68 5 3.36 5 2 5 C1.34 3.35 0.68 1.7 0 0 Z " fill="#191919" transform="translate(231,109)"/>
<path d="M0 0 C0.33 0.99 0.66 1.98 1 3 C1.66 3.33 2.32 3.66 3 4 C1.68 5.32 0.36 6.64 -1 8 C-1.93065133 5.39417629 -2.14917407 4.35801776 -1.0625 1.75 C-0.711875 1.1725 -0.36125 0.595 0 0 Z " fill="#DBDBDB" transform="translate(150,231)"/>
<path d="M0 0 C0.33 0 0.66 0 1 0 C1.22134176 2.12368444 1.42670007 4.24904024 1.625 6.375 C1.74101562 7.55835938 1.85703125 8.74171875 1.9765625 9.9609375 C1.98429688 10.96382812 1.99203125 11.96671875 2 13 C1.34 13.66 0.68 14.32 0 15 C0 14.34 0 13.68 0 13 C-0.66 12.67 -1.32 12.34 -2 12 C-1.34 12 -0.68 12 0 12 C0 8.04 0 4.08 0 0 Z " fill="#989898" transform="translate(230,203)"/>
<path d="M0 0 C0.33 1.32 0.66 2.64 1 4 C-0.8125 4.6875 -0.8125 4.6875 -3 5 C-4.75 3.5625 -4.75 3.5625 -6 2 C-2.25 0 -2.25 0 0 0 Z " fill="#D3D3D3" transform="translate(153,157)"/>
<path d="M0 0 C0.80824219 0.19464844 1.61648437 0.38929688 2.44921875 0.58984375 C3.06410156 0.74582031 3.67898437 0.90179688 4.3125 1.0625 C4.3125 1.3925 4.3125 1.7225 4.3125 2.0625 C-4.25892857 2.34821429 -4.25892857 2.34821429 -7.6875 0.0625 C-4.39053895 -1.03648702 -3.28255097 -0.80874444 0 0 Z " fill="#434343" transform="translate(178.6875,395.9375)"/>
<path d="M0 0 C-1.0975223 2.99324263 -1.67682892 3.84610901 -4.625 5.25 C-5.40875 5.4975 -6.1925 5.745 -7 6 C-5.52522876 2.59668175 -4.14385429 0 0 0 Z " fill="#F4F4F4" transform="translate(67,366)"/>
<path d="M0 0 C0 0.66 0 1.32 0 2 C-2.3125 3.6875 -2.3125 3.6875 -5 5 C-5.99 4.67 -6.98 4.34 -8 4 C-3.375 0 -3.375 0 0 0 Z " fill="#F4F4F4" transform="translate(73,291)"/>
<path d="M0 0 C0.66 0 1.32 0 2 0 C2.33 0.99 2.66 1.98 3 3 C2.01 3.99 1.02 4.98 0 6 C0 5.34 0 4.68 0 4 C-0.66 4 -1.32 4 -2 4 C-1.34 2.68 -0.68 1.36 0 0 Z " fill="#D6D6D6" transform="translate(262,172)"/>
</svg>
