<?xml version="1.0" encoding="UTF-8"?>
<svg version="1.1" xmlns="http://www.w3.org/2000/svg" width="480" height="480">
<path d="M0 0 C158.4 0 316.8 0 480 0 C480 158.4 480 316.8 480 480 C321.6 480 163.2 480 0 480 C0 321.6 0 163.2 0 0 Z " fill="#0E152E" transform="translate(0,0)"/>
<path d="M0 0 C14.19 0 28.38 0 43 0 C43 11.55 43 23.1 43 35 C28.81 35 14.62 35 0 35 C0 23.45 0 11.9 0 0 Z " fill="#F8F9FC" transform="translate(219,169)"/>
<path d="M0 0 C5.74236233 3.03370085 10.13392965 6.42399092 12.3125 12.75 C13.17614943 18.67341378 13.08356099 24.1322478 9.64453125 29.1875 C5.67819508 33.84009375 1.47516856 37.64071966 -4.6875 38.75 C-11.47485549 38.95260763 -16.43717192 37.00252817 -21.6875 32.75 C-26.60862976 27.4503218 -27.15733869 22.94096486 -27.09765625 15.8984375 C-26.35335612 10.1850479 -23.36644833 6.06276115 -19.05859375 2.34375 C-12.98829158 -1.91611117 -6.85338288 -2.32318064 0 0 Z " fill="#131B31" transform="translate(368.6875,234.25)"/>
<path d="M0 0 C6.73126967 5.5601382 11.27005634 12.83291186 12.3046875 21.57421875 C12.57374856 31.33515618 9.93562303 39.19889544 4 47 C-3.08791698 53.74115 -9.85756943 55.49373845 -19.47387695 55.50195312 C-27.26536661 55.281321 -32.33168327 52.74024451 -37.79296875 47.171875 C-43.38991977 40.37261598 -46.76546197 32.36047457 -46.30859375 23.5 C-45.17218862 14.29367998 -41.7936245 7.43967095 -35 1 C-23.36413555 -6.60605232 -12.10684334 -7.04997136 0 0 Z M-31.703125 4.98828125 C-35.66859104 11.13953128 -35.36631518 17.68055629 -35.375 24.75 C-35.39949219 25.78382813 -35.42398438 26.81765625 -35.44921875 27.8828125 C-35.48112674 36.32779367 -33.9941786 43.40698568 -28.5 50 C-24.26844203 53.38524638 -21.67604732 54.42273291 -16.0859375 54.24609375 C-11.07771898 53.65523651 -7.81185625 51.79340497 -4.25 48.3125 C1.13957284 41.06441583 1.47211174 33.71847638 1.375 25 C1.38660156 23.9584375 1.39820313 22.916875 1.41015625 21.84375 C1.38142292 14.25815217 0.65642946 8.23079259 -4.3125 2.1875 C-9.04006079 -1.66051459 -12.96182104 -3.56692866 -19.0546875 -3.27734375 C-24.80052395 -2.45815823 -28.07394532 0.80301759 -31.703125 4.98828125 Z " fill="#EEF0F2" transform="translate(141,217)"/>
<path d="M0 0 C3.64947014 2.14674714 5.67272979 3.95688974 7.1875 7.875 C7.81710568 12.49559578 7.88412037 17.09141395 7.9375 21.75 C7.96714844 23.01070313 7.99679687 24.27140625 8.02734375 25.5703125 C8.09783525 28.67193866 8.15063741 31.77282197 8.1875 34.875 C9.5075 34.875 10.8275 34.875 12.1875 34.875 C12.1875 34.215 12.1875 33.555 12.1875 32.875 C12.8475 32.875 13.5075 32.875 14.1875 32.875 C12.81766497 36.03615776 12.1984362 36.8677092 9.1875 38.875 C6.3125 39.375 6.3125 39.375 3.1875 38.875 C1.13799272 37.03898307 -0.20446015 35.14517391 -1.8125 32.875 C-2.369375 33.49375 -2.92625 34.1125 -3.5 34.75 C-6.55808052 37.56012804 -8.76221677 38.7741664 -12.95703125 38.98046875 C-17.12382715 38.7938958 -19.97844231 38.33162672 -22.875 35.1875 C-25.02364421 31.51401152 -25.67739669 30.02650411 -24.8125 25.875 C-21.32401293 20.79723999 -18.21146167 18.71164878 -12.25 17 C-11.2609668 16.68289062 -11.2609668 16.68289062 -10.25195312 16.359375 C-6.92430944 15.32931042 -4.32989193 14.875 -0.8125 14.875 C-0.89983576 13.26982903 -1.00802224 11.66578338 -1.125 10.0625 C-1.18300781 9.16917969 -1.24101562 8.27585938 -1.30078125 7.35546875 C-1.88931459 4.50265449 -2.42814677 3.52237132 -4.8125 1.875 C-6.86613606 1.5143369 -6.86613606 1.5143369 -9 1.6875 C-10.258125 1.749375 -11.51625 1.81125 -12.8125 1.875 C-13.92118317 5.20104951 -14.35427532 8.40558454 -14.8125 11.875 C-16.7925 11.875 -18.7725 11.875 -20.8125 11.875 C-21.625 9.1875 -21.625 9.1875 -21.8125 5.875 C-15.77316911 -1.71730169 -8.96400135 -2.64511515 0 0 Z " fill="#F2F3F5" transform="translate(262.8125,234.125)"/>
<path d="M0 0 C0 3.63 0 7.26 0 11 C-2.64 11.33 -5.28 11.66 -8 12 C-8 12.33 -8 12.66 -8 13 C-5.36 13.33 -2.72 13.66 0 14 C0 15.65 0 17.3 0 19 C-3.3 19 -6.6 19 -10 19 C-10.33 18.01 -10.66 17.02 -11 16 C-11.33 18.31 -11.66 20.62 -12 23 C-7.05 23 -2.1 23 3 23 C3 20.03 3 17.06 3 14 C9.93359375 13.90234375 9.93359375 13.90234375 12 14 C13 15 13 15 13.1328125 17.6875 C13.13023437 18.780625 13.12765625 19.87375 13.125 21 C13.12886719 22.6396875 13.12886719 22.6396875 13.1328125 24.3125 C13 27 13 27 12 28 C9.40640678 28.08851529 6.83960309 28.11525945 4.24609375 28.09765625 C3.47064713 28.0962413 2.6952005 28.09482635 1.89625549 28.09336853 C-0.59003494 28.08775345 -3.0762366 28.07519846 -5.5625 28.0625 C-7.24413933 28.05748694 -8.92578006 28.0529237 -10.60742188 28.04882812 C-14.73831566 28.03777913 -18.86914276 28.02050445 -23 28 C-23 23.38 -23 18.76 -23 14 C-18.545 13.505 -18.545 13.505 -14 13 C-14 12.34 -14 11.68 -14 11 C-16.64 11 -19.28 11 -22 11 C-22 7.37 -22 3.74 -22 0 C-14.38646059 -0.88989422 -7.61353941 -0.88989422 0 0 Z " fill="#363C4E" transform="translate(245,173)"/>
<path d="M0 0 C5.74236233 3.03370085 10.13392965 6.42399092 12.3125 12.75 C13.17614943 18.67341378 13.08356099 24.1322478 9.64453125 29.1875 C5.67819508 33.84009375 1.47516856 37.64071966 -4.6875 38.75 C-11.47485549 38.95260763 -16.43717192 37.00252817 -21.6875 32.75 C-26.60862976 27.4503218 -27.15733869 22.94096486 -27.09765625 15.8984375 C-26.35335612 10.1850479 -23.36644833 6.06276115 -19.05859375 2.34375 C-12.98829158 -1.91611117 -6.85338288 -2.32318064 0 0 Z M-16.6875 5.75 C-19.81841095 12.86570671 -19.66305683 21.30546176 -17.4375 28.6875 C-16.08396674 32.1680141 -14.95190251 34.72077682 -11.6875 36.75 C-8.50438663 37.20473048 -6.70354463 37.44554906 -3.6875 36.75 C0.09104076 33.87502333 1.92677084 31.23538649 3.3125 26.75 C3.64368146 23.7668081 3.68260288 20.81198353 3.6875 17.8125 C3.71199219 17.02681641 3.73648437 16.24113281 3.76171875 15.43164062 C3.78879309 10.03933391 2.84282896 7.04807708 -0.6875 2.75 C-2.6642105 0.35968745 -2.6642105 0.35968745 -6.4375 0.3125 C-11.18808996 0.45069898 -13.5064141 2.1902134 -16.6875 5.75 Z " fill="#F1F3F6" transform="translate(368.6875,234.25)"/>
<path d="M0 0 C2.34804493 2.27230155 2.92640609 3.38181117 3.3125 6.625 C3 9 3 9 1 11 C-1.5 11.25 -1.5 11.25 -4 11 C-4.66 10.34 -5.32 9.68 -6 9 C-5.96712417 6.27130593 -5.43602229 3.7033382 -5 1 C-8.55001512 -0.77500756 -12.48562075 -0.4206609 -16.25 0.625 C-18.87502095 2.68751646 -19.71661603 4.93335047 -21 8 C-21.82498332 15.49764256 -22.26755237 23.52509296 -18 30 C-15.69841689 32.10430456 -14.20422627 32.94381906 -11.07421875 33.08984375 C-6.26501968 32.73662574 -3.51854493 31.41801507 0 28 C0.598125 27.4225 1.19625 26.845 1.8125 26.25 C2.204375 25.8375 2.59625 25.425 3 25 C3 28.99711412 1.67858456 30.1042329 -1 33 C-6.20723079 36.64506156 -10.64953101 37.6350469 -17 37 C-23.53555483 34.05594633 -28.13094661 29.60492718 -31 23 C-31.85641587 17.08294487 -31.15167421 11.1345156 -28 6 C-19.9727538 -2.82649582 -10.78588268 -5.92166108 0 0 Z " fill="#EFF0F3" transform="translate(229,236)"/>
<path d="M0 0 C1 1 1 1 1.09765625 3.28515625 C1.08605469 4.20167969 1.07445312 5.11820313 1.0625 6.0625 C1.05347656 6.98160156 1.04445313 7.90070313 1.03515625 8.84765625 C1.02355469 9.55792969 1.01195312 10.26820313 1 11 C0.01 11 -0.98 11 -2 11 C-2.433125 9.88625 -2.86625 8.7725 -3.3125 7.625 C-4.69911119 3.82487666 -4.69911119 3.82487666 -8 2 C-11.5620149 1.44702591 -14.86676772 1.3818733 -18.0625 3.125 C-19.46771358 5.93542716 -18.72549141 8.03208058 -18 11 C-17.29875 11.24234375 -16.5975 11.4846875 -15.875 11.734375 C-0.13744076 17.29383886 -0.13744076 17.29383886 3 22 C3.4775733 26.85532856 3.51341394 29.04398784 1.1875 33.375 C-1 36 -1 36 -4 38 C-6.9609375 38.23046875 -6.9609375 38.23046875 -10.375 38.1875 C-11.49648438 38.18105469 -12.61796875 38.17460937 -13.7734375 38.16796875 C-17 38 -17 38 -19.7265625 37.42578125 C-22.15232737 36.78107493 -22.15232737 36.78107493 -25 38 C-25 33.71 -25 29.42 -25 25 C-24.01 25.33 -23.02 25.66 -22 26 C-21.525625 27.11375 -21.05125 28.2275 -20.5625 29.375 C-18.76070994 33.68998708 -18.76070994 33.68998708 -15 36 C-11.15967167 36.56219239 -8.05907696 36.47658463 -4.5 34.875 C-2.39294868 32.24118585 -2.70898778 30.27388743 -3 27 C-3.94875 26.5875 -4.8975 26.175 -5.875 25.75 C-6.82439453 25.33621094 -6.82439453 25.33621094 -7.79296875 24.9140625 C-9.36265242 24.26396342 -10.95139032 23.65907299 -12.55078125 23.0859375 C-21.60733696 19.78532609 -21.60733696 19.78532609 -24 15 C-24.67086404 10.84064293 -24.97444376 8.54782072 -22.71875 4.96484375 C-16.38334311 -2.59727182 -9.23847098 -1.60582865 0 0 Z " fill="#F1F2F4" transform="translate(307,234)"/>
<path d="M0 0 C1.79948158 2.79919357 1.30775392 5.52134739 1.125 8.75 C-1.75 9.375 -1.75 9.375 -4.875 9.75 C-5.535 9.09 -6.195 8.43 -6.875 7.75 C-6.84212417 5.02130593 -6.31102229 2.4533382 -5.875 -0.25 C-9.09840777 -1.86170388 -12.38941919 -1.84542551 -15.875 -1.25 C-19.66332513 1.63242129 -21.39793286 4.29288514 -22.875 8.75 C-23.75768126 16.19120833 -23.31263343 22.56514505 -18.875 28.75 C-17.3357536 30.96750908 -17.3357536 30.96750908 -14.875 31.75 C-9.95300474 32.03680799 -6.80785773 31.54090112 -3 28.3125 C-2.29875 27.466875 -1.5975 26.62125 -0.875 25.75 C0.115 25.09 1.105 24.43 2.125 23.75 C0.73006348 28.18843439 -1.39398201 30.6934964 -4.875 33.75 C-10.49135801 35.62211934 -17.55518338 36.02421533 -23.14453125 33.87890625 C-27.23956144 31.15780776 -30.45023223 27.50201956 -31.875 22.75 C-32.83048162 15.69205559 -32.86657036 9.28137545 -28.50390625 3.40234375 C-20.14555708 -5.07626944 -10.03924006 -6.69282671 0 0 Z " fill="#EEEFF3" transform="translate(190.875,237.25)"/>
<path d="M0 0 C0 11.55 0 23.1 0 35 C-0.33 35 -0.66 35 -1 35 C-1 23.78 -1 12.56 -1 1 C-2.98 1.99 -2.98 1.99 -5 3 C-4.67 3.33 -4.34 3.66 -4 4 C-3.92773498 5.85287502 -3.9161878 7.70833878 -3.9375 9.5625 C-3.94652344 10.57441406 -3.95554687 11.58632812 -3.96484375 12.62890625 C-3.97644531 13.41136719 -3.98804688 14.19382813 -4 15 C-6.40545638 16.20272819 -7.94996953 16.10071472 -10.625 16.0625 C-11.85089844 16.04896484 -11.85089844 16.04896484 -13.1015625 16.03515625 C-13.72804687 16.02355469 -14.35453125 16.01195312 -15 16 C-14.67 16.66 -14.34 17.32 -14 18 C-13.86440682 21.00474497 -13.95700984 23.99068847 -14 27 C-18.95 27 -23.9 27 -29 27 C-29 24.69 -29 22.38 -29 20 C-28.34 19.67 -27.68 19.34 -27 19 C-27 20.32 -27 21.64 -27 23 C-23.7 23 -20.4 23 -17 23 C-17 21.35 -17 19.7 -17 18 C-19.97 18 -22.94 18 -26 18 C-26 17.01 -26 16.02 -26 15 C-23.03 15 -20.06 15 -17 15 C-17 11.37 -17 7.74 -17 4 C-19.64 4 -22.28 4 -25 4 C-25 3.01 -25 2.02 -25 1 C-21.77093849 0.83125405 -18.54173589 0.66537263 -15.3125 0.5 C-14.40048828 0.45230469 -13.48847656 0.40460938 -12.54882812 0.35546875 C-11.66259766 0.31035156 -10.77636719 0.26523438 -9.86328125 0.21875 C-9.05157471 0.17685547 -8.23986816 0.13496094 -7.40356445 0.09179688 C-4.93731796 -0.00239395 -2.46804451 0 0 0 Z " fill="#E7EAEE" transform="translate(262,169)"/>
<path d="M0 0 C0 3.63 0 7.26 0 11 C-2.64 11.33 -5.28 11.66 -8 12 C-8 12.33 -8 12.66 -8 13 C-5.36 13.33 -2.72 13.66 0 14 C0 15.65 0 17.3 0 19 C-3.3 19 -6.6 19 -10 19 C-10.33 18.01 -10.66 17.02 -11 16 C-11.33 18.31 -11.66 20.62 -12 23 C-7.38 23 -2.76 23 2 23 C2 23.33 2 23.66 2 24 C-2.95 24 -7.9 24 -13 24 C-13.33 19.71 -13.66 15.42 -14 11 C-16.64 11 -19.28 11 -22 11 C-22 7.37 -22 3.74 -22 0 C-14.38646059 -0.88989422 -7.61353941 -0.88989422 0 0 Z " fill="#D0D4D7" transform="translate(245,173)"/>
<path d="M0 0 C4.62 0 9.24 0 14 0 C14.15433627 6.41781659 13.62957462 12.31566431 12.5 18.625 C11.51732085 24.16695629 10.81869035 29.36429166 11 35 C13.42267086 35.05167527 13.42267086 35.05167527 16 34 C17.86983745 30.52692672 17.86983745 30.52692672 19 27 C19.75 28.625 19.75 28.625 20 31 C18.50594347 33.5398961 17.09462345 35.90537655 15 38 C13.0390625 38.23828125 13.0390625 38.23828125 10.625 38.3125 C9.83351563 38.34988281 9.04203125 38.38726562 8.2265625 38.42578125 C6 38 6 38 4.19921875 36.43359375 C2.51419381 33.01414574 2.86713932 30.53402496 3.1875 26.75 C3.24284912 26.05777344 3.29819824 25.36554688 3.35522461 24.65234375 C3.99769764 17.0757694 4.9683521 9.53203129 6 2 C4.02 2 2.04 2 0 2 C0 1.34 0 0.68 0 0 Z " fill="#F2F2F5" transform="translate(317,234)"/>
<path d="M0 0 C4.0017584 1.66247106 8.00146589 3.32978937 12 5 C13.14855469 5.47759766 13.14855469 5.47759766 14.3203125 5.96484375 C18.88379964 7.88379964 18.88379964 7.88379964 20 9 C20.375 11.8125 20.375 11.8125 20 15 C17.90004464 17.49369699 16.29842946 18.74345547 13.0625 19.3828125 C9.34909091 19.59380165 7.38263778 19.22459174 4.125 17.3125 C1.86389242 14.85188293 0.79014184 13.23958155 0 10 C0.375 7.1875 0.375 7.1875 1 5 C0.34 5 -0.32 5 -1 5 C-0.67 3.35 -0.34 1.7 0 0 Z " fill="#151C31" transform="translate(285,252)"/>
<path d="M0 0 C12.54 0 25.08 0 38 0 C38 0.33 38 0.66 38 1 C31.4 1 24.8 1 18 1 C18 1.99 18 2.98 18 4 C13.38 4 8.76 4 4 4 C4 7.63 4 11.26 4 15 C6.64 15 9.28 15 12 15 C12.33 15.99 12.66 16.98 13 18 C9.7 18 6.4 18 3 18 C3.14100857 20.27113803 3.28796755 22.54190725 3.4375 24.8125 C3.51871094 26.07707031 3.59992188 27.34164062 3.68359375 28.64453125 C3.87184547 31.99181893 3.87184547 31.99181893 5 35 C3.35 35 1.7 35 0 35 C0 23.45 0 11.9 0 0 Z " fill="#EEF1F5" transform="translate(219,169)"/>
<path d="M0 0 C-0.58018647 2.41744365 -1.24559215 4.70788325 -2.0625 7.0625 C-3.87487712 13.36524432 -3.32566309 20.13500393 -2.4375 26.5625 C-2 30 -2 30 -3 32 C-6.12981912 31.66466224 -7.00061159 30.99933599 -9.1875 28.625 C-12.8966555 23.25311962 -12.84415408 17.31552314 -12 11 C-9.60662991 5.72852665 -6.33332181 0 0 0 Z " fill="#F4F6F8" transform="translate(354,236)"/>
<path d="M0 0 C0.25131079 7.19028088 0.41843256 12.05866311 -4.3125 17.8125 C-7 20 -7 20 -9.625 20.5 C-12.4660388 19.90188657 -13.23359929 19.2703738 -15 17 C-15.67994204 13.605956 -15.5827667 10.40694379 -15 7 C-11.72329812 3.00651958 -5.29478423 0 0 0 Z " fill="#171F31" transform="translate(262,250)"/>
<path d="M0 0 C0 0.66 0 1.32 0 2 C-0.69867188 2.26554688 -1.39734375 2.53109375 -2.1171875 2.8046875 C-3.02726562 3.15789062 -3.93734375 3.51109375 -4.875 3.875 C-6.23238281 4.39707031 -6.23238281 4.39707031 -7.6171875 4.9296875 C-10.12217007 5.88530895 -10.12217007 5.88530895 -12 8 C-12.31899515 10.36955386 -12.31899515 10.36955386 -12.25 13 C-12.25515625 13.886875 -12.2603125 14.77375 -12.265625 15.6875 C-12.22052862 18.19400239 -12.22052862 18.19400239 -10 20 C-6.9086614 20.23779528 -4.96895056 19.98965019 -2 19 C-0.87483915 17.16715557 -0.87483915 17.16715557 0 15 C0.66666667 13.66666667 1.33333333 12.33333333 2 11 C1.51376147 17.32110092 1.51376147 17.32110092 -0.75 20.3125 C-5.41972097 23.81479073 -9.11778112 24.47994759 -14.83984375 23.66796875 C-18.75432938 22.45752202 -19.9455664 20.51241873 -22 17 C-22.625 14 -22.625 14 -22 11 C-18.3991843 5.73884614 -15.36878891 3.8402632 -9.3125 2.125 C-8.63638672 1.91359375 -7.96027344 1.7021875 -7.26367188 1.484375 C-2.42017553 0 -2.42017553 0 0 0 Z " fill="#EAEBEF" transform="translate(260,249)"/>
<path d="M0 0 C2.84309488 0.10338527 4.07353474 0.34669411 6.625 1.75 C9.0033698 5.91214715 8.3744813 9.63485531 8.125 14.375 C4.165 15.365 0.205 16.355 -3.875 17.375 C-4.205 15.725 -4.535 14.075 -4.875 12.375 C-6.855 12.375 -8.835 12.375 -10.875 12.375 C-10.875 12.045 -10.875 11.715 -10.875 11.375 C-9.225 11.375 -7.575 11.375 -5.875 11.375 C-5.89820313 10.74851563 -5.92140625 10.12203125 -5.9453125 9.4765625 C-5.97238281 8.25066406 -5.97238281 8.25066406 -6 7 C-6.02320313 6.18789062 -6.04640625 5.37578125 -6.0703125 4.5390625 C-5.69642587 0.39639859 -3.89105843 0.37655404 0 0 Z " fill="#192133" transform="translate(253.875,234.625)"/>
<path d="M0 0 C3.0625 1.9375 3.0625 1.9375 5 5 C5.10386099 8.10544352 4.66620137 10.97241158 4 14 C0.2868788 15.23770707 -0.94558047 14.57925405 -4.5625 13.25 C-6.01849609 12.73179687 -6.01849609 12.73179687 -7.50390625 12.203125 C-10 11 -10 11 -12 8 C-11.8125 4.9375 -11.8125 4.9375 -11 2 C-7.30191187 -0.46539209 -4.28896558 -0.78284032 0 0 Z " fill="#161D31" transform="translate(299,235)"/>
<path d="M0 0 C0 3.3 0 6.6 0 10 C4.95 9.67 9.9 9.34 15 9 C15.33 6.36 15.66 3.72 16 1 C17.61949011 3.57213134 18.04408751 4.67669159 17.625 7.75 C17.315625 8.86375 17.315625 8.86375 17 10 C16.01 10.33 15.02 10.66 14 11 C14 11.66 14 12.32 14 13 C6.41 13 -1.18 13 -9 13 C-9 9.04 -9 5.08 -9 1 C-1.125 0 -1.125 0 0 0 Z " fill="#0F162C" transform="translate(232,187)"/>
<path d="M0 0 C3.1098394 1.70736281 4.61633629 2.60767258 6.1875 5.75 C6.5 8.375 6.5 8.375 6.1875 10.75 C4.1875 12.75 4.1875 12.75 1.6875 13 C-0.8125 12.75 -0.8125 12.75 -2.8125 10.75 C-2.77962417 8.02130593 -2.24852229 5.4533382 -1.8125 2.75 C-4.80247825 1.25501087 -7.51292775 1.63422554 -10.8125 1.75 C-11.8025 2.08 -12.7925 2.41 -13.8125 2.75 C-14.1425 1.76 -14.4725 0.77 -14.8125 -0.25 C-9.7696458 -1.9309514 -4.9354495 -1.92807369 0 0 Z " fill="#ECEFF2" transform="translate(225.8125,234.25)"/>
<path d="M0 0 C3.3 0 6.6 0 10 0 C10 3.63 10 7.26 10 11 C6.7 11 3.4 11 0 11 C0 7.37 0 3.74 0 0 Z " fill="#101B2C" transform="translate(248,173)"/>
<path d="M0 0 C3.3 0 6.6 0 10 0 C10 3.63 10 7.26 10 11 C6.7 11 3.4 11 0 11 C0 7.37 0 3.74 0 0 Z " fill="#242D3E" transform="translate(235,173)"/>
<path d="M0 0 C3.3 0 6.6 0 10 0 C10 3.63 10 7.26 10 11 C6.7 11 3.4 11 0 11 C0 7.37 0 3.74 0 0 Z " fill="#1D2639" transform="translate(223,173)"/>
<path d="M0 0 C0 11.55 0 23.1 0 35 C-0.33 35 -0.66 35 -1 35 C-1 23.78 -1 12.56 -1 1 C-2.32 1.99 -3.64 2.98 -5 4 C-11.68147537 5.33629507 -18.31935756 5.15626504 -25 4 C-25 3.01 -25 2.02 -25 1 C-21.77093849 0.83125405 -18.54173589 0.66537263 -15.3125 0.5 C-14.40048828 0.45230469 -13.48847656 0.40460938 -12.54882812 0.35546875 C-11.66259766 0.31035156 -10.77636719 0.26523438 -9.86328125 0.21875 C-9.05157471 0.17685547 -8.23986816 0.13496094 -7.40356445 0.09179688 C-4.93731796 -0.00239395 -2.46804451 0 0 0 Z " fill="#D3D5DC" transform="translate(262,169)"/>
<path d="M0 0 C0.79921875 0.01804688 1.5984375 0.03609375 2.421875 0.0546875 C3.02515625 0.07789063 3.6284375 0.10109375 4.25 0.125 C3.92 1.115 3.59 2.105 3.25 3.125 C0.61 3.125 -2.03 3.125 -4.75 3.125 C-5.85868317 6.45104951 -6.29177532 9.65558454 -6.75 13.125 C-8.73 13.125 -10.71 13.125 -12.75 13.125 C-13.5625 10.4375 -13.5625 10.4375 -13.75 7.125 C-9.86282772 2.23826913 -6.24345543 -0.18363104 0 0 Z " fill="#E4E8ED" transform="translate(254.75,232.875)"/>
<path d="M0 0 C1.33157895 5.44736842 1.33157895 5.44736842 -0.125 7.875 C-2.61629254 9.36977553 -4.14449042 9.43930917 -7 9 C-9 6 -9 6 -8.75 2.875 C-8.37875 1.451875 -8.37875 1.451875 -8 0 C-5.13822943 -1.43088528 -3.06624227 -0.59991697 0 0 Z " fill="#ECEFF1" transform="translate(332,214)"/>
<path d="M0 0 C2.59094622 0.35012787 4.5774211 0.73770965 6.8125 2.125 C8.63883169 5.00868162 8.18806842 7.67745793 8 11 C5.125 11.625 5.125 11.625 2 12 C1.34 11.34 0.68 10.68 0 10 C0.05859375 8.125 0.05859375 8.125 0.4375 6 C1.05696544 2.89939461 1.05696544 2.89939461 0 0 Z " fill="#F4F5F7" transform="translate(184,235)"/>
<path d="M0 0 C5.37343833 -0.11432848 10.69282159 0.07750762 16 1 C17 2 17 2 17.09765625 4.28515625 C17.08605469 5.20167969 17.07445312 6.11820313 17.0625 7.0625 C17.05347656 7.98160156 17.04445313 8.90070313 17.03515625 9.84765625 C17.02355469 10.55792969 17.01195312 11.26820313 17 12 C16.01 12 15.02 12 14 12 C13.566875 10.88625 13.13375 9.7725 12.6875 8.625 C11.30088881 4.82487666 11.30088881 4.82487666 8 3 C5.95415921 2.33841957 5.95415921 2.33841957 3.8125 1.875 C2.554375 1.58625 1.29625 1.2975 0 1 C0 0.67 0 0.34 0 0 Z " fill="#D0D3DA" transform="translate(291,233)"/>
<path d="M0 0 C0.66 0.66 1.32 1.32 2 2 C-1.85157506 6.95202508 -5.47395337 11.04028726 -12 12 C-14.33300933 12.03888349 -16.66709801 12.0448635 -19 12 C-18.67 10.35 -18.34 8.7 -18 7 C-16.205625 7.3403125 -16.205625 7.3403125 -14.375 7.6875 C-10.06564288 8.21284566 -7.65282414 7.49056191 -4 5 C-1.65674336 2.44860147 -1.65674336 2.44860147 0 0 Z " fill="#D2D6E1" transform="translate(231,261)"/>
<path d="M0 0 C-0.99 1.485 -0.99 1.485 -2 3 C-2.66 2.67 -3.32 2.34 -4 2 C-9.24692517 0.25102494 -13.35302618 0.25420054 -18.3125 2.5 C-19.199375 2.995 -20.08625 3.49 -21 4 C-21.99 4 -22.98 4 -24 4 C-23.4375 2.125 -23.4375 2.125 -22 0 C-14.74433791 -2.96149473 -7.26737288 -2.98148631 0 0 Z " fill="#E3E9EF" transform="translate(135,214)"/>
<path d="M0 0 C3.3 0 6.6 0 10 0 C10 1.65 10 3.3 10 5 C6.7 5 3.4 5 0 5 C0 3.35 0 1.7 0 0 Z " fill="#3C4554" transform="translate(235,187)"/>
<path d="M0 0 C-0.66 1.32 -1.32 2.64 -2 4 C-2.33 3.505 -2.66 3.01 -3 2.5 C-6.07696877 0.19227342 -9.3378441 0.5505201 -13 1 C-15.40557853 1.86265968 -15.40557853 1.86265968 -17 3 C-17 2.34 -17 1.68 -17 1 C-17.66 0.67 -18.32 0.34 -19 0 C-12.56619852 -3.21690074 -6.49234959 -2.59693984 0 0 Z " fill="#BAC1CC" transform="translate(371,235)"/>
<path d="M0 0 C0.61875 0.825 1.2375 1.65 1.875 2.5 C3.80907007 4.49013007 4.76250807 4.96918044 7.55859375 5.33203125 C10.0555153 5.31432259 12.51289435 5.21731991 15 5 C15.33 5.66 15.66 6.32 16 7 C8.49118208 8.44219467 3.67216405 7.75510682 -3 4 C-2.34 3.67 -1.68 3.34 -1 3 C-0.67 2.01 -0.34 1.02 0 0 Z " fill="#D1D7E2" transform="translate(352,265)"/>
<path d="M0 0 C0.66 0 1.32 0 2 0 C2.05395478 1.62463842 2.09277195 3.24978541 2.125 4.875 C2.14820313 5.77992188 2.17140625 6.68484375 2.1953125 7.6171875 C2 10 2 10 0 12 C-2.1640625 12.4140625 -2.1640625 12.4140625 -4.625 12.625 C-5.44226563 12.69976562 -6.25953125 12.77453125 -7.1015625 12.8515625 C-7.72804687 12.90054688 -8.35453125 12.94953125 -9 13 C-9 12.01 -9 11.02 -9 10 C-6.03 10 -3.06 10 0 10 C0 6.7 0 3.4 0 0 Z " fill="#EDEFF6" transform="translate(245,174)"/>
<path d="M0 0 C1.22419163 3.93795909 0.48320272 6.16112237 -1 10 C-1.66 10 -2.32 10 -3 10 C-3 13.3 -3 16.6 -3 20 C-3.33 20 -3.66 20 -4 20 C-4.4731614 12.11397658 -4.17981006 6.79219135 0 0 Z " fill="#363C4B" transform="translate(171,238)"/>
<path d="M0 0 C1.61949011 2.57213134 2.04408751 3.67669159 1.625 6.75 C1.41875 7.4925 1.2125 8.235 1 9 C0.01 9.33 -0.98 9.66 -2 10 C-2 10.66 -2 11.32 -2 12 C-4.31 12 -6.62 12 -9 12 C-9.33 11.34 -9.66 10.68 -10 10 C-7.03 9.34 -4.06 8.68 -1 8 C-0.67 5.36 -0.34 2.72 0 0 Z " fill="#12182E" transform="translate(248,188)"/>
<path d="M0 0 C3.3 0 6.6 0 10 0 C10 3.63 10 7.26 10 11 C9.67 11 9.34 11 9 11 C8.67 8.03 8.34 5.06 8 2 C5.36 2 2.72 2 0 2 C0 1.34 0 0.68 0 0 Z " fill="#3E434F" transform="translate(248,173)"/>
<path d="M0 0 C4.62 0 9.24 0 14 0 C14 0.33 14 0.66 14 1 C13.21625 1.144375 12.4325 1.28875 11.625 1.4375 C9.03578982 1.87798925 9.03578982 1.87798925 7 3 C6.34786708 5.02463255 6.34786708 5.02463255 6 7 C6 5.35 6 3.7 6 2 C4.02 2 2.04 2 0 2 C0 1.34 0 0.68 0 0 Z " fill="#B3B9C5" transform="translate(317,234)"/>
<path d="M0 0 C0.495 0.33 0.99 0.66 1.5 1 C-2.18065805 2.17781058 -5.6644081 2 -9.5 2 C-10.49 2.33 -11.48 2.66 -12.5 3 C-12.83 2.01 -13.16 1.02 -13.5 0 C-8.97258828 -1.50913724 -4.43573202 -1.77429281 0 0 Z " fill="#BAC0CB" transform="translate(224.5,234)"/>
<path d="M0 0 C3.3 0 6.6 0 10 0 C9.67 0.99 9.34 1.98 9 3 C6.36 3 3.72 3 1 3 C0.67 2.01 0.34 1.02 0 0 Z " fill="#CFD2D7" transform="translate(235,192)"/>
<path d="M0 0 C1 3 1 3 0.00390625 5.04296875 C-0.47175781 5.75066406 -0.94742187 6.45835937 -1.4375 7.1875 C-1.91058594 7.90292969 -2.38367188 8.61835938 -2.87109375 9.35546875 C-3.24363281 9.89816406 -3.61617188 10.44085938 -4 11 C-4.66 9.68 -5.32 8.36 -6 7 C-4.02 4.69 -2.04 2.38 0 0 Z " fill="#1A1F30" transform="translate(347,236)"/>
<path d="M0 0 C0.66 0 1.32 0 2 0 C2 2.64 2 5.28 2 8 C0.35 7.67 -1.3 7.34 -3 7 C-2.38722388 4.03824877 -1.74627478 2.61941217 0 0 Z " fill="#A2A8BC" transform="translate(395,264)"/>
<path d="M0 0 C0.33 0.66 0.66 1.32 1 2 C1.66 2 2.32 2 3 2 C2.3125 4.375 2.3125 4.375 1 7 C-1.625 8.3125 -1.625 8.3125 -4 9 C-4.33 8.34 -4.66 7.68 -5 7 C-4.360625 6.5875 -3.72125 6.175 -3.0625 5.75 C-0.79009069 3.82189513 -0.39803561 2.88575819 0 0 Z " fill="#DBDFE6" transform="translate(305,263)"/>
<path d="M0 0 C0.70125 0.144375 1.4025 0.28875 2.125 0.4375 C1.135 1.0975 0.145 1.7575 -0.875 2.4375 C-1.89696992 3.41503644 -2.89479625 4.4180881 -3.875 5.4375 C-5.20833333 6.77083333 -6.54166667 8.10416667 -7.875 9.4375 C-8.205 8.7775 -8.535 8.1175 -8.875 7.4375 C-3.7809081 0.57535558 -3.7809081 0.57535558 0 0 Z " fill="#E8EBF3" transform="translate(291.875,233.5625)"/>
<path d="M0 0 C0.61875 0.639375 1.2375 1.27875 1.875 1.9375 C3.82597612 4.03883584 3.82597612 4.03883584 6 5 C6 5.66 6 6.32 6 7 C4.34385343 7.38218767 2.67542976 7.71395102 1 8 C0 7 0 7 -0.0625 3.4375 C-0.041875 2.303125 -0.02125 1.16875 0 0 Z " fill="#2C3341" transform="translate(327,262)"/>
<path d="M0 0 C0.33 0.66 0.66 1.32 1 2 C-1.31 4.64 -3.62 7.28 -6 10 C-7.32 9.34 -8.64 8.68 -10 8 C-8.906875 7.4225 -7.81375 6.845 -6.6875 6.25 C-3.70330868 4.55855553 -1.81055186 2.98208542 0 0 Z " fill="#D2D8E8" transform="translate(192,261)"/>
<path d="M0 0 C5.4389165 -0.21755666 9.87080814 -0.10428384 15 2 C14.01 3.485 14.01 3.485 13 5 C10.525 4.01 10.525 4.01 8 3 C8 2.34 8 1.68 8 1 C5.36 1 2.72 1 0 1 C0 0.67 0 0.34 0 0 Z " fill="#B7BFC8" transform="translate(120,212)"/>
<path d="M0 0 C0 0.66 0 1.32 0 2 C-4.95 3.485 -4.95 3.485 -10 5 C-10.66 4.34 -11.32 3.68 -12 3 C-10.37604003 2.49663233 -8.75079459 1.99741024 -7.125 1.5 C-6.22007812 1.2215625 -5.31515625 0.943125 -4.3828125 0.65625 C-2 0 -2 0 0 0 Z " fill="#C3CBD6" transform="translate(260,249)"/>
<path d="M0 0 C0.66 0 1.32 0 2 0 C0.63016497 3.16115776 0.0109362 3.9927092 -3 6 C-6.1875 6.125 -6.1875 6.125 -9 6 C-6.06279492 4.47700477 -3.0831351 3.19899698 0 2 C0 1.34 0 0.68 0 0 Z " fill="#BDBECB" transform="translate(275,267)"/>
<path d="M0 0 C0.75 1.625 0.75 1.625 1 4 C-2.136 9.712 -2.136 9.712 -6 11 C-5 8 -5 8 -3.5625 6.625 C-1.62907486 4.61423786 -0.9168436 2.60947795 0 0 Z " fill="#D4DEE9" transform="translate(336,261)"/>
<path d="M0 0 C1.32 0.33 2.64 0.66 4 1 C2.35 2.98 0.7 4.96 -1 7 C-1.625 5.1875 -1.625 5.1875 -2 3 C-1.34 2.01 -0.68 1.02 0 0 Z " fill="#1F2536" transform="translate(289,236)"/>
<path d="M0 0 C0.33 0 0.66 0 1 0 C0.63076923 6.4 0.63076923 6.4 -2.5625 9.4375 C-3.7690625 10.2109375 -3.7690625 10.2109375 -5 11 C-5 10.01 -5 9.02 -5 8 C-4.34 8 -3.68 8 -3 8 C-1.58622659 5.36095629 -0.62759865 2.92879371 0 0 Z " fill="#C6CBD8" transform="translate(261,260)"/>
<path d="M0 0 C2.97 1.98 2.97 1.98 6 4 C5.01 4.495 5.01 4.495 4 5 C4 5.66 4 6.32 4 7 C2.68 6.67 1.36 6.34 0 6 C0.66 5.67 1.32 5.34 2 5 C1.34 4.34 0.68 3.68 0 3 C0 2.01 0 1.02 0 0 Z " fill="#DDDFE5" transform="translate(170,265)"/>
<path d="M0 0 C2.475 0.495 2.475 0.495 5 1 C5 1.99 5 2.98 5 4 C3.35 4 1.7 4 0 4 C0 2.68 0 1.36 0 0 Z " fill="#E6E8ED" transform="translate(224,235)"/>
<path d="M0 0 C0.721875 0.144375 1.44375 0.28875 2.1875 0.4375 C3.5796875 0.7159375 3.5796875 0.7159375 5 1 C6.66666667 1.33333333 8.33333333 1.66666667 10 2 C10 2.33 10 2.66 10 3 C2.25 3.125 2.25 3.125 0 2 C0 1.34 0 0.68 0 0 Z " fill="#2D303F" transform="translate(290,268)"/>
<path d="M0 0 C2.875 -0.125 2.875 -0.125 6 0 C6.66 0.66 7.32 1.32 8 2 C7.01 3.485 7.01 3.485 6 5 C5.566875 4.54625 5.13375 4.0925 4.6875 3.625 C2.89201658 1.79975666 2.89201658 1.79975666 0 0 Z " fill="#D3D8E2" transform="translate(363,234)"/>
<path d="M0 0 C4.75 0.875 4.75 0.875 7 2 C7.33 1.34 7.66 0.68 8 0 C8 0.99 8 1.98 8 3 C5.36 3 2.72 3 0 3 C0 2.01 0 1.02 0 0 Z " fill="#0A1326" transform="translate(236,189)"/>
</svg>
