<?xml version="1.0" encoding="UTF-8"?>
<svg version="1.1" xmlns="http://www.w3.org/2000/svg" width="442" height="109">
<path d="M0 0 C145.86 0 291.72 0 442 0 C442 35.97 442 71.94 442 109 C296.14 109 150.28 109 0 109 C0 73.03 0 37.06 0 0 Z " fill="#020202" transform="translate(0,0)"/>
<path d="M0 0 C0.69480469 -0.02449219 1.38960938 -0.04898437 2.10546875 -0.07421875 C7.28788976 -0.10349796 10.13055666 1.15099825 14.125 4.375 C20.05615104 10.63565944 20.46788846 17.089383 20.4375 25.3125 C20.45361328 26.18068359 20.46972656 27.04886719 20.48632812 27.94335938 C20.49056833 33.5531552 19.67329466 37.37567384 17.125 42.375 C16.691875 43.48875 16.691875 43.48875 16.25 44.625 C14.35397608 47.57437054 11.56242223 48.94196904 8.2578125 49.9375 C1.65805157 51.29129711 -4.31302589 50.9688854 -10.19140625 47.5625 C-15.48311741 43.83006336 -17.70694721 38.56229413 -18.875 32.375 C-19.63196037 22.36061894 -19.63012819 13.06825887 -13.9375 4.4375 C-9.7304923 0.2304923 -5.77667283 0.0105994 0 0 Z " fill="#050505" transform="translate(408.875,27.625)"/>
<path d="M0 0 C0.69480469 -0.02449219 1.38960937 -0.04898437 2.10546875 -0.07421875 C7.28788976 -0.10349796 10.13055666 1.15099825 14.125 4.375 C20.05615104 10.63565944 20.46788846 17.089383 20.4375 25.3125 C20.45361328 26.18068359 20.46972656 27.04886719 20.48632812 27.94335938 C20.49056833 33.5531552 19.67329466 37.37567384 17.125 42.375 C16.691875 43.48875 16.691875 43.48875 16.25 44.625 C14.35397608 47.57437054 11.56242223 48.94196904 8.2578125 49.9375 C1.65805157 51.29129711 -4.31302589 50.9688854 -10.19140625 47.5625 C-15.48311741 43.83006336 -17.70694721 38.56229413 -18.875 32.375 C-19.63196037 22.36061894 -19.63012819 13.06825887 -13.9375 4.4375 C-9.7304923 0.2304923 -5.77667283 0.0105994 0 0 Z " fill="#050505" transform="translate(118.875,27.625)"/>
<path d="M0 0 C5.59338196 4.09441111 8.16532201 10.23722304 9.19921875 16.90234375 C9.28869457 18.73396634 9.32936987 20.56854423 9.32421875 22.40234375 C9.32808594 23.7790625 9.32808594 23.7790625 9.33203125 25.18359375 C9.2016591 27.85238829 8.79300481 30.30099528 8.19921875 32.90234375 C7.53921875 32.90234375 6.87921875 32.90234375 6.19921875 32.90234375 C6.15796875 33.56234375 6.11671875 34.22234375 6.07421875 34.90234375 C4.29808675 40.99193916 -0.42775586 46.60525999 -5.80078125 49.90234375 C-14.81638646 53.62793374 -23.60141778 54.31484153 -32.7734375 50.80078125 C-39.6245633 47.76463687 -43.29284403 43.39259893 -46.80078125 36.90234375 C-49.21998755 28.70562815 -49.41377756 17.05916794 -45.80078125 9.21484375 C-41.97913615 2.97102921 -36.34523901 -2.42349305 -29.2578125 -4.66015625 C-18.66954596 -6.54550737 -9.1834288 -5.59770823 0 0 Z M-36.2265625 4.6484375 C-40.90305203 13.56878977 -41.13504279 24.42926917 -39.1171875 34.21875 C-36.79455852 41.30228651 -33.95391566 44.47968201 -27.55078125 48.21484375 C-20.45432711 49.98895729 -14.1845892 49.41995221 -7.80078125 45.90234375 C-3.96032691 42.88484391 -1.75406081 38.63820171 -0.80078125 33.90234375 C-0.55890763 30.6553736 -0.56976152 27.40746084 -0.55078125 24.15234375 C-0.53015625 23.28351562 -0.50953125 22.4146875 -0.48828125 21.51953125 C-0.44863154 14.91785413 -1.10212905 9.06980413 -5.5546875 3.84375 C-6.15152344 3.38871094 -6.74835938 2.93367188 -7.36328125 2.46484375 C-7.96269531 1.99175781 -8.56210937 1.51867187 -9.1796875 1.03125 C-12.82998409 -1.51076377 -16.24057082 -1.35222331 -20.55078125 -1.41015625 C-21.60652344 -1.45366211 -21.60652344 -1.45366211 -22.68359375 -1.49804688 C-28.48802151 -1.56817472 -32.42124866 -0.01176876 -36.2265625 4.6484375 Z " fill="#ECECEC" transform="translate(429.80078125,29.09765625)"/>
<path d="M0 0 C5.59338196 4.09441111 8.16532201 10.23722304 9.19921875 16.90234375 C9.28869457 18.73396634 9.32936987 20.56854423 9.32421875 22.40234375 C9.32808594 23.7790625 9.32808594 23.7790625 9.33203125 25.18359375 C9.2016591 27.85238829 8.79300481 30.30099528 8.19921875 32.90234375 C7.53921875 32.90234375 6.87921875 32.90234375 6.19921875 32.90234375 C6.15796875 33.56234375 6.11671875 34.22234375 6.07421875 34.90234375 C4.29808675 40.99193916 -0.42775586 46.60525999 -5.80078125 49.90234375 C-14.81638646 53.62793374 -23.60141778 54.31484153 -32.7734375 50.80078125 C-39.6245633 47.76463687 -43.29284403 43.39259893 -46.80078125 36.90234375 C-49.21998755 28.70562815 -49.41377756 17.05916794 -45.80078125 9.21484375 C-41.97913615 2.97102921 -36.34523901 -2.42349305 -29.2578125 -4.66015625 C-18.66954596 -6.54550737 -9.1834288 -5.59770823 0 0 Z M-36.2265625 4.6484375 C-40.90305203 13.56878977 -41.13504279 24.42926917 -39.1171875 34.21875 C-36.79455852 41.30228651 -33.95391566 44.47968201 -27.55078125 48.21484375 C-20.45432711 49.98895729 -14.1845892 49.41995221 -7.80078125 45.90234375 C-3.96032691 42.88484391 -1.75406081 38.63820171 -0.80078125 33.90234375 C-0.55890763 30.6553736 -0.56976152 27.40746084 -0.55078125 24.15234375 C-0.53015625 23.28351562 -0.50953125 22.4146875 -0.48828125 21.51953125 C-0.44863154 14.91785413 -1.10212905 9.06980413 -5.5546875 3.84375 C-6.15152344 3.38871094 -6.74835938 2.93367188 -7.36328125 2.46484375 C-7.96269531 1.99175781 -8.56210938 1.51867187 -9.1796875 1.03125 C-12.82998409 -1.51076377 -16.24057082 -1.35222331 -20.55078125 -1.41015625 C-21.60652344 -1.45366211 -21.60652344 -1.45366211 -22.68359375 -1.49804688 C-28.48802151 -1.56817472 -32.42124866 -0.01176876 -36.2265625 4.6484375 Z " fill="#ECECEC" transform="translate(139.80078125,29.09765625)"/>
<path d="M0 0 C0.495 3.96 0.495 3.96 1 8 C1.66 8 2.32 8 3 8 C5 15.625 5 15.625 5 19 C5.66 19 6.32 19 7 19 C9 26.625 9 26.625 9 30 C9.66 30 10.32 30 11 30 C12.80230168 33.82989106 13.19622241 36.78121808 13 41 C13.66 41 14.32 41 15 41 C15.14695312 41.68707031 15.29390625 42.37414062 15.4453125 43.08203125 C16.80820166 49.07605128 16.80820166 49.07605128 21.1875 53.125 C22.115625 53.41375 23.04375 53.7025 24 54 C24 54.66 24 55.32 24 56 C17.4 56 10.8 56 4 56 C4 55.34 4 54.68 4 54 C6.475 53.505 6.475 53.505 9 53 C8.35460128 50.89569999 7.70866624 48.79156446 7.0625 46.6875 C6.70285156 45.51574219 6.34320313 44.34398437 5.97265625 43.13671875 C5.33627721 41.08446023 4.67946621 39.03839863 4 37 C-2.27 37 -8.54 37 -15 37 C-15.33 38.65 -15.66 40.3 -16 42 C-16.66 42 -17.32 42 -18 42 C-18 43.65 -18 45.3 -18 47 C-18.66 47 -19.32 47 -20 47 C-20 48.98 -20 50.96 -20 53 C-18.35 53.33 -16.7 53.66 -15 54 C-15 54.66 -15 55.32 -15 56 C-20.61 56 -26.22 56 -32 56 C-31.67 55.01 -31.34 54.02 -31 53 C-28.525 52.505 -28.525 52.505 -26 52 C-25.82662613 51.4553157 -25.65325226 50.91063141 -25.47462463 50.34944153 C-23.65946578 44.76233591 -21.57460324 39.35394434 -19.27734375 33.94921875 C-18.75812096 32.71737602 -18.75812096 32.71737602 -18.22840881 31.46064758 C-17.50305978 29.74156883 -16.7761077 28.02316564 -16.04760742 26.30541992 C-14.93366519 23.67845654 -13.82482747 21.04938347 -12.71679688 18.41992188 C-12.00810742 16.7420629 -11.29913312 15.06432421 -10.58984375 13.38671875 C-10.09447365 12.21323128 -10.09447365 12.21323128 -9.58909607 11.01603699 C-9.12334923 9.91888115 -9.12334923 9.91888115 -8.64819336 8.79956055 C-8.37744492 8.16052292 -8.10669647 7.52148529 -7.82774353 6.86308289 C-4.77856494 0 -4.77856494 0 0 0 Z " fill="#EEEEEE" transform="translate(286,24)"/>
<path d="M0 0 C1.64162109 0.00966797 1.64162109 0.00966797 3.31640625 0.01953125 C6.4375 0.1875 6.4375 0.1875 11.4375 1.1875 C11.1075 5.1475 10.7775 9.1075 10.4375 13.1875 C9.4475 13.1875 8.4575 13.1875 7.4375 13.1875 C7.1075 10.5475 6.7775 7.9075 6.4375 5.1875 C4.18809705 5.10630497 1.93785129 5.04822181 -0.3125 5 C-1.56546875 4.96519531 -2.8184375 4.93039063 -4.109375 4.89453125 C-7.75586979 5.20390581 -9.16179428 5.45728565 -11.5625 8.1875 C-12.2575739 10.68157252 -12.2575739 10.68157252 -12.3125 13.375 C-12.36921875 14.27605469 -12.4259375 15.17710938 -12.484375 16.10546875 C-12.51015625 16.79253906 -12.5359375 17.47960937 -12.5625 18.1875 C-11.5725 18.5175 -10.5825 18.8475 -9.5625 19.1875 C-9.14613281 19.63351563 -8.72976563 20.07953125 -8.30078125 20.5390625 C-5.36750222 23.32073385 -1.5591593 24.72839454 2.08007812 26.40625 C6.78337598 28.65411248 12.02370523 31.35991045 14.4375 36.1875 C15.07474938 41.16714875 15.23228752 45.73901998 12.4375 50.0625 C8.16311277 55.04339751 4.13857957 56.97174137 -2.42578125 57.49609375 C-8.99170741 57.66639155 -14.19011174 57.31162942 -20.5625 55.1875 C-19.9025 50.5675 -19.2425 45.9475 -18.5625 41.1875 C-17.5725 41.1875 -16.5825 41.1875 -15.5625 41.1875 C-15.2325 44.8175 -14.9025 48.4475 -14.5625 52.1875 C-12.14553128 52.24161124 -9.72978213 52.28122278 -7.3125 52.3125 C-6.63058594 52.32925781 -5.94867188 52.34601563 -5.24609375 52.36328125 C-1.5309625 52.39935049 1.34657884 52.37562735 4.4375 50.1875 C6.00221233 47.05807535 6.13451958 43.57667777 5.4375 40.1875 C1.84086 35.38570315 -3.96189576 33.3300731 -9.27539062 30.89453125 C-14.85811001 28.13508684 -18.05860963 24.95073359 -20.5625 19.1875 C-21.28399004 13.95669718 -20.41412731 10.61243893 -17.5625 6.1875 C-12.39986336 1.16439408 -7.07173301 -0.09184069 0 0 Z " fill="#EDEDED" transform="translate(333.5625,23.8125)"/>
<path d="M0 0 C-0.33 3.96 -0.66 7.92 -1 12 C-1.99 12.33 -2.98 12.66 -4 13 C-4.18175781 12.36191406 -4.36351562 11.72382812 -4.55078125 11.06640625 C-4.80214844 10.24011719 -5.05351562 9.41382813 -5.3125 8.5625 C-5.55613281 7.73878906 -5.79976562 6.91507813 -6.05078125 6.06640625 C-6.36402344 5.38449219 -6.67726562 4.70257812 -7 4 C-12.89337991 2.03554003 -19.62481701 2.0137304 -25.375 4.5 C-30.5668163 7.47436704 -33.15723271 12.47169814 -35 18 C-35.39431764 25.73045977 -35.78348093 33.67505019 -33 41 C-32.01 41.33 -31.02 41.66 -30 42 C-28.33333333 43.66666667 -26.66666667 45.33333333 -25 47 C-21.30669399 49.542932 -17.44040621 49.26272268 -13.125 49.1875 C-12.08279297 49.1865332 -12.08279297 49.1865332 -11.01953125 49.18554688 C-6.91648064 49.15077526 -3.02501211 48.78859955 1 48 C1 48.99 1 49.98 1 51 C-0.41478135 51.64995297 -1.83191487 52.29478722 -3.25 52.9375 C-4.03890625 53.29714844 -4.8278125 53.65679687 -5.640625 54.02734375 C-13.14024696 57.11907532 -20.87559175 56.70813608 -28.5078125 54.1640625 C-35.12005472 51.07558573 -40.81839711 45.71344103 -43.40625 38.8125 C-45.34728254 29.61813536 -45.60654599 19.29860068 -40.6015625 11.078125 C-30.8559165 -1.56744493 -14.99556637 -5.67154553 0 0 Z " fill="#F1F1F1" transform="translate(252,26)"/>
<path d="M0 0 C-0.33 3.96 -0.66 7.92 -1 12 C-1.99 12.33 -2.98 12.66 -4 13 C-4.18175781 12.36191406 -4.36351562 11.72382812 -4.55078125 11.06640625 C-4.80214844 10.24011719 -5.05351562 9.41382813 -5.3125 8.5625 C-5.55613281 7.73878906 -5.79976562 6.91507813 -6.05078125 6.06640625 C-6.36402344 5.38449219 -6.67726562 4.70257812 -7 4 C-12.89337991 2.03554003 -19.62481701 2.0137304 -25.375 4.5 C-30.5668163 7.47436704 -33.15723271 12.47169814 -35 18 C-35.39431764 25.73045977 -35.78348093 33.67505019 -33 41 C-32.01 41.33 -31.02 41.66 -30 42 C-28.33333333 43.66666667 -26.66666667 45.33333333 -25 47 C-21.30669399 49.542932 -17.44040621 49.26272268 -13.125 49.1875 C-12.08279297 49.1865332 -12.08279297 49.1865332 -11.01953125 49.18554688 C-6.91648064 49.15077526 -3.02501211 48.78859955 1 48 C1 48.99 1 49.98 1 51 C-0.41478135 51.64995297 -1.83191487 52.29478722 -3.25 52.9375 C-4.03890625 53.29714844 -4.8278125 53.65679687 -5.640625 54.02734375 C-13.14024696 57.11907532 -20.87559175 56.70813608 -28.5078125 54.1640625 C-35.12005472 51.07558573 -40.81839711 45.71344103 -43.40625 38.8125 C-45.34728254 29.61813536 -45.60654599 19.29860068 -40.6015625 11.078125 C-30.8559165 -1.56744493 -14.99556637 -5.67154553 0 0 Z " fill="#F1F1F1" transform="translate(200,26)"/>
<path d="M0 0 C6.6 0 13.2 0 20 0 C19.67 0.99 19.34 1.98 19 3 C17.68 3.33 16.36 3.66 15 4 C14.67 19.84 14.34 35.68 14 52 C15.98 52.33 17.96 52.66 20 53 C20 53.66 20 54.32 20 55 C13.73 55 7.46 55 1 55 C1 54.34 1 53.68 1 53 C3.475 52.505 3.475 52.505 6 52 C6 36.16 6 20.32 6 4 C4.02 3.34 2.04 2.68 0 2 C0 1.34 0 0.68 0 0 Z " fill="#F3F3F3" transform="translate(354,25)"/>
<path d="M0 0 C0.99 0.33 1.98 0.66 3 1 C2 4 2 4 -0.375 6.125 C-6.57143833 12.91157531 -6.56947624 21.22692119 -6.29296875 30.02734375 C-5.91429734 35.16212807 -5.28437742 40.32783712 -3 45 C-2.01 45.33 -1.02 45.66 0 46 C0.45375 46.474375 0.9075 46.94875 1.375 47.4375 C5.86680982 51.75654791 12.11208219 51.5655517 18 52 C18.33 52.99 18.66 53.98 19 55 C14.02791426 57.48604287 7.37939375 56.35239126 2.25 54.75 C-5.63036854 51.73080784 -10.01670666 47.36974142 -14 40 C-16.4192063 31.8032844 -16.61299631 20.15682419 -13 12.3125 C-9.90058874 7.17937763 -5.39232845 2.69616422 0 0 Z " fill="#F3F3F3" transform="translate(397,26)"/>
<path d="M0 0 C0.99 0.33 1.98 0.66 3 1 C2 4 2 4 -0.375 6.125 C-6.57143833 12.91157531 -6.56947624 21.22692119 -6.29296875 30.02734375 C-5.91429734 35.16212807 -5.28437742 40.32783712 -3 45 C-2.01 45.33 -1.02 45.66 0 46 C0.45375 46.474375 0.9075 46.94875 1.375 47.4375 C5.86680982 51.75654791 12.11208219 51.5655517 18 52 C18.33 52.99 18.66 53.98 19 55 C14.02791426 57.48604287 7.37939375 56.35239126 2.25 54.75 C-5.63036854 51.73080784 -10.01670666 47.36974142 -14 40 C-16.4192063 31.8032844 -16.61299631 20.15682419 -13 12.3125 C-9.90058874 7.17937763 -5.39232845 2.69616422 0 0 Z " fill="#F3F3F3" transform="translate(107,26)"/>
<path d="M0 0 C3.34820898 1.46625856 5.69266359 3.33658447 8.3125 5.875 C9.03050781 6.55304687 9.74851562 7.23109375 10.48828125 7.9296875 C12 10 12 10 12 11.95703125 C10.64003207 14.73540324 8.85834006 16.6132365 6.6875 18.8125 C5.90761719 19.62332031 5.12773438 20.43414062 4.32421875 21.26953125 C2 23 2 23 0.00390625 23.046875 C-2.76230834 21.60175704 -4.59533682 19.68722185 -6.75 17.4375 C-7.54921875 16.61121094 -8.3484375 15.78492188 -9.171875 14.93359375 C-9.77515625 14.29550781 -10.3784375 13.65742187 -11 13 C-9.46356148 9.31930113 -7.21849055 7.01224796 -4.375 4.25 C-3.55773438 3.45078125 -2.74046875 2.6515625 -1.8984375 1.828125 C-0.95871094 0.92320313 -0.95871094 0.92320313 0 0 Z " fill="#F1F1F1" transform="translate(50,39)"/>
<path d="M0 0 C3.34820898 1.46625856 5.69266359 3.33658447 8.3125 5.875 C9.03050781 6.55304687 9.74851562 7.23109375 10.48828125 7.9296875 C12 10 12 10 12 11.95703125 C10.64003207 14.73540324 8.85834006 16.6132365 6.6875 18.8125 C5.90761719 19.62332031 5.12773438 20.43414062 4.32421875 21.26953125 C2 23 2 23 0.00390625 23.046875 C-2.76230834 21.60175704 -4.59533682 19.68722185 -6.75 17.4375 C-7.54921875 16.61121094 -8.3484375 15.78492188 -9.171875 14.93359375 C-9.77515625 14.29550781 -10.3784375 13.65742187 -11 13 C-9.46356148 9.31930113 -7.21849055 7.01224796 -4.375 4.25 C-3.55773437 3.45078125 -2.74046875 2.6515625 -1.8984375 1.828125 C-0.95871094 0.92320313 -0.95871094 0.92320313 0 0 Z " fill="#F2F2F2" transform="translate(33,22)"/>
<path d="M0 0 C2.58094195 1.26526646 4.15980907 2.88825027 6.125 4.98046875 C8.77060724 7.87332463 8.77060724 7.87332463 12 9.98046875 C10.87267591 13.36244103 9.85817627 14.22104689 7.1875 16.48046875 C6.50042969 17.06828125 5.81335938 17.65609375 5.10546875 18.26171875 C3.11292813 19.88828252 1.05771567 21.43718199 -1 22.98046875 C-4.63 19.35046875 -8.26 15.72046875 -12 11.98046875 C-10.23155975 8.44358825 -8.81749546 6.44682728 -6.125 3.66796875 C-5.10792969 2.59095703 -5.10792969 2.59095703 -4.0703125 1.4921875 C-2 -0.01953125 -2 -0.01953125 0 0 Z " fill="#F5F5F5" transform="translate(34,57.01953125)"/>
<path d="M0 0 C2.814387 1.40180195 4.61923772 3.31257266 6.7890625 5.578125 C7.58828125 6.40441406 8.3875 7.23070312 9.2109375 8.08203125 C9.81421875 8.72011719 10.4175 9.35820313 11.0390625 10.015625 C9.50262398 13.69632387 7.25755305 16.00337704 4.4140625 18.765625 C3.59679688 19.56484375 2.77953125 20.3640625 1.9375 21.1875 C1.31101562 21.79078125 0.68453125 22.3940625 0.0390625 23.015625 C-4.14517642 19.50665231 -8.15681916 15.93501965 -11.9609375 12.015625 C-10.49467894 8.66741602 -8.62435303 6.32296141 -6.0859375 3.703125 C-5.06886719 2.62611328 -5.06886719 2.62611328 -4.03125 1.52734375 C-1.9609375 0.015625 -1.9609375 0.015625 0 0 Z " fill="#F7F7F7" transform="translate(16.9609375,39.984375)"/>
<path d="M0 0 C0.66 0 1.32 0 2 0 C3.00816056 2.58041096 4.0067111 5.16386944 5 7.75 C5.28617187 8.47960938 5.57234375 9.20921875 5.8671875 9.9609375 C6.13789063 10.66992188 6.40859375 11.37890625 6.6875 12.109375 C6.93886719 12.75874023 7.19023437 13.40810547 7.44921875 14.07714844 C8 16 8 16 8 20 C3.38 20 -1.24 20 -6 20 C-5.57534294 12.63927766 -3.01651083 6.67862176 0 0 Z " fill="#171717" transform="translate(280,36)"/>
<path d="M0 0 C2.20805524 -0.0544452 4.41650554 -0.09299283 6.625 -0.125 C7.85476562 -0.14820312 9.08453125 -0.17140625 10.3515625 -0.1953125 C13.94316041 -0.0030428 16.66661175 0.69741444 20 2 C19.67 5.96 19.34 9.92 19 14 C18.01 14.33 17.02 14.66 16 15 C14.515 10.545 14.515 10.545 13 6 C12.15695313 5.87882812 11.31390625 5.75765625 10.4453125 5.6328125 C8.80175781 5.38144531 8.80175781 5.38144531 7.125 5.125 C5.48917969 4.88136719 5.48917969 4.88136719 3.8203125 4.6328125 C1 4 1 4 -1 2 C-0.67 1.34 -0.34 0.68 0 0 Z " fill="#E2E2E2" transform="translate(232,24)"/>
<path d="M0 0 C2.20805524 -0.0544452 4.41650554 -0.09299283 6.625 -0.125 C7.85476562 -0.14820312 9.08453125 -0.17140625 10.3515625 -0.1953125 C13.94316041 -0.0030428 16.66661175 0.69741444 20 2 C19.67 5.96 19.34 9.92 19 14 C18.01 14.33 17.02 14.66 16 15 C14.515 10.545 14.515 10.545 13 6 C12.15695313 5.87882812 11.31390625 5.75765625 10.4453125 5.6328125 C8.80175781 5.38144531 8.80175781 5.38144531 7.125 5.125 C5.48917969 4.88136719 5.48917969 4.88136719 3.8203125 4.6328125 C1 4 1 4 -1 2 C-0.67 1.34 -0.34 0.68 0 0 Z " fill="#E2E2E2" transform="translate(180,24)"/>
<path d="M0 0 C0.66 0.33 1.32 0.66 2 1 C1.34 1.66 0.68 2.32 0 3 C0.66 3.66 1.32 4.32 2 5 C0.71254964 5.38922918 -0.58019597 5.76098036 -1.875 6.125 C-2.95394531 6.43824219 -2.95394531 6.43824219 -4.0546875 6.7578125 C-4.69664062 6.83773437 -5.33859375 6.91765625 -6 7 C-6.66 6.34 -7.32 5.68 -8 5 C-6.35197949 1.70395897 -3.32254422 1.22409524 0 0 Z " fill="#E5E5E5" transform="translate(422,74)"/>
<path d="M0 0 C0.66 0.33 1.32 0.66 2 1 C1.34 1.66 0.68 2.32 0 3 C0.66 3.66 1.32 4.32 2 5 C0.71254964 5.38922918 -0.58019597 5.76098036 -1.875 6.125 C-2.95394531 6.43824219 -2.95394531 6.43824219 -4.0546875 6.7578125 C-4.69664063 6.83773437 -5.33859375 6.91765625 -6 7 C-6.66 6.34 -7.32 5.68 -8 5 C-6.35197949 1.70395897 -3.32254422 1.22409524 0 0 Z " fill="#E5E5E5" transform="translate(132,74)"/>
<path d="M0 0 C6.6 0 13.2 0 20 0 C19.67 0.99 19.34 1.98 19 3 C18.49984375 2.83628906 17.9996875 2.67257813 17.484375 2.50390625 C14.0736532 1.8121089 10.71264243 1.89495335 7.25 1.9375 C6.55261719 1.94201172 5.85523438 1.94652344 5.13671875 1.95117188 C3.42444197 1.9628998 1.71220967 1.98083347 0 2 C0 1.34 0 0.68 0 0 Z " fill="#C8C8C8" transform="translate(354,25)"/>
<path d="M0 0 C0.99 0.33 1.98 0.66 3 1 C5.39490986 1.06970052 7.79167691 1.08448003 10.1875 1.0625 C11.45980469 1.05347656 12.73210937 1.04445313 14.04296875 1.03515625 C15.01878906 1.02355469 15.99460937 1.01195313 17 1 C17 1.66 17 2.32 17 3 C10.73 3 4.46 3 -2 3 C-2 2.34 -2 1.68 -2 1 C-1.34 0.67 -0.68 0.34 0 0 Z " fill="#EAEAEA" transform="translate(357,77)"/>
<path d="M0 0 C0.53109375 0.16371094 1.0621875 0.32742187 1.609375 0.49609375 C4.53876764 1.11356377 7.25822936 1.09501925 10.25 1.0625 C11.86648438 1.04896484 11.86648438 1.04896484 13.515625 1.03515625 C14.74539063 1.01775391 14.74539063 1.01775391 16 1 C16 1.66 16 2.32 16 3 C10.39 3 4.78 3 -1 3 C-0.67 2.01 -0.34 1.02 0 0 Z " fill="#E1E1E1" transform="translate(255,77)"/>
<path d="M0 0 C0.82757813 0.23009766 0.82757813 0.23009766 1.671875 0.46484375 C4.20317383 1.04670271 6.66441972 1.32435445 9.25 1.5625 C10.14203125 1.64628906 11.0340625 1.73007812 11.953125 1.81640625 C12.62859375 1.87699219 13.3040625 1.93757813 14 2 C14 2.33 14 2.66 14 3 C9.38 3.33 4.76 3.66 0 4 C0 2.68 0 1.36 0 0 Z " fill="#C5C5C5" transform="translate(399,25)"/>
<path d="M0 0 C0.82757813 0.23009766 0.82757813 0.23009766 1.671875 0.46484375 C4.20317383 1.04670271 6.66441972 1.32435445 9.25 1.5625 C10.14203125 1.64628906 11.0340625 1.73007812 11.953125 1.81640625 C12.62859375 1.87699219 13.3040625 1.93757813 14 2 C14 2.33 14 2.66 14 3 C9.38 3.33 4.76 3.66 0 4 C0 2.68 0 1.36 0 0 Z " fill="#C5C5C5" transform="translate(109,25)"/>
</svg>
